<svg width="292" height="120" viewBox="0 0 292 120" fill="none" xmlns="http://www.w3.org/2000/svg">
<path d="M85.5487 24.6663C84.47 24.5412 83.1521 24.2569 82.0904 24.489C78.7437 25.2204 66.2581 28.9634 66.1044 29.0108C48.3955 34.4676 28.2917 39.4103 13.1698 49.3817C3.04062 56.0608 1.47586 67.9367 9.92537 76.8016C16.9803 84.2033 25.5259 88.2995 35.5782 92.2485C61.1276 102.285 89.0602 106.527 116.572 108.241C157.695 110.803 201.21 108.256 240.51 98.3418C261.172 93.1298 308.599 74.4196 277.292 51.1539C265.774 42.5938 250.688 37.5761 236.835 33.3748C214.206 26.5119 196.867 23.0808 173.011 19.8768C122.429 13.0831 73.1435 14.3017 22.7313 16.3745" stroke="#A54A3E" stroke-width="2" stroke-linecap="round"/>
<path d="M45.0006 65.9999C16.3452 47.1458 46.1576 29.5689 51.4988 27.5634C72.4741 20.2875 98.0764 15.9947 117.499 16.0001C156.171 16.0108 262.404 21.3982 266.175 68.3434C259.851 109.123 193.999 101.5 139.999 95.9998C98.9988 91.8239 63.9988 78.4998 45.0006 65.9999Z" fill="#F5F1D4"/>
<path d="M51.4988 27.5634C46.1576 29.5689 16.3452 47.1458 45.0006 65.9999C63.9988 78.4998 98.9988 91.8239 139.999 95.9998C193.999 101.5 259.851 109.123 266.175 68.3434C262.404 21.3982 156.171 16.0108 117.499 16.0001C90.443 15.9926 51.3947 24.3258 29.5675 37.4448" stroke="#A54A3E" stroke-width="2" stroke-linecap="round"/>
<path d="M68.9999 22C68.3975 22.1339 68.1271 22.6835 67.8888 23.2222C64.3202 31.2903 61.4658 39.7393 58.3888 48C56.8259 52.1961 55.2385 56.3644 53.9999 60.6667C53.7428 61.56 53.5546 61.5 53.9999 61.5" stroke="#F26553" stroke-width="2" stroke-linecap="round"/>
<path d="M61.9999 44C61.725 44 60.467 44.3347 61.361 44.4722C64.9763 45.0284 69.4117 43.8588 72.9999 43.5" stroke="#F26553" stroke-width="2" stroke-linecap="round"/>
<path d="M79 25.5C79 26.0228 78.9322 26.4332 78.7778 26.9444C76.1263 35.7217 73.668 44.5574 71.3056 53.4167C70.2385 57.418 69.5016 61.4935 68.5 65.5" stroke="#F26553" stroke-width="2" stroke-linecap="round"/>
<path d="M80 45.5C78.5681 47.2501 75.3216 59.1608 76 59.5" stroke="#F26553" stroke-width="2" stroke-linecap="round"/>
<path d="M80.5 41C80.9389 41.3414 82.0225 41 81.5 41" stroke="#F26553" stroke-width="2" stroke-linecap="round"/>
<path d="M95 21.5C93.3652 23.498 92.8891 27.095 92.2222 29.3889C90.4682 35.4219 88.7258 41.4595 87 47.5" stroke="#F26553" stroke-width="2" stroke-linecap="round"/>
<path d="M84 57C83.3678 57.079 83.2761 58.4477 83 59" stroke="#F26553" stroke-width="2" stroke-linecap="round"/>
<path d="M106 27C106.091 26.8061 106.407 25.9032 106.389 25.9445C103.876 31.5297 102.372 37.9948 100.528 43.7778C98.6484 49.6704 96.8289 55.5449 95.2778 61.5278C95.0286 62.489 95.1409 62.0387 95.5 61.5" stroke="#F26553" stroke-width="2" stroke-linecap="round"/>
<path d="M89 65.5H101" stroke="#F26553" stroke-width="2" stroke-linecap="round"/>
<path d="M99.5 26C103.672 26 107.835 25.7192 112 25.5" stroke="#F26553" stroke-width="2" stroke-linecap="round"/>
<path d="M111 37.5C109.473 41.6656 107.938 45.7959 106.5 50" stroke="#F26553" stroke-width="2" stroke-linecap="round"/>
<path d="M109.5 51C109.259 55.5825 107.445 60.2895 106.5 64.7778C106.095 66.6994 107.483 60.9717 108.111 59.1111C108.566 57.7627 109.785 53.2708 111.5 53C113.644 52.6615 112.877 56.98 112.722 58C112.593 58.8472 112.018 62.5199 112.055 62.3889C112.658 60.2789 114.557 57.9884 115.972 56.3611C116.783 55.4284 118.308 55.0397 118.694 56.5833C119.589 60.1599 117.151 65.7765 116 69" stroke="#F26553" stroke-width="2" stroke-linecap="round"/>
<path d="M135 56.5C133.555 59.2457 132.106 61.9679 130.778 64.7778C130.029 66.3609 126.805 71.2113 127.611 73.3889C128.243 75.0938 137.423 68.2402 138.5 67.5" stroke="#F26553" stroke-width="2" stroke-linecap="round"/>
<path d="M127 63.5C129.486 63.5 132.014 63.1309 134.5 63" stroke="#F26553" stroke-width="2" stroke-linecap="round"/>
<path d="M148 48.5C146.778 49.9659 146.106 52.0886 145.389 53.7778C143.35 58.5817 141.445 63.4363 139.5 68.2778C139.242 68.9206 138.032 72.5324 137.5 72" stroke="#F26553" stroke-width="2" stroke-linecap="round"/>
<path d="M141.5 65C142.406 64.0942 143.162 63.2222 144.556 63.2222C147.344 63.2222 146.976 64.244 146.5 66.3333C145.631 70.1455 144.896 73.805 142.5 77" stroke="#F26553" stroke-width="2" stroke-linecap="round"/>
<path d="M148 70C149.698 70 150.789 69.7433 152.278 68.7222C152.437 68.6131 156.24 65.6445 155.889 65.5C155.251 65.2373 153.881 65.93 153.389 66.2222C150.93 67.682 145.625 71.8523 146.055 75.1667C146.606 79.4061 154.912 76.1594 157 75.5" stroke="#F26553" stroke-width="2" stroke-linecap="round"/>
<path d="M174.898 65.7581C174.966 66.305 175.796 66.3901 175.62 65.9804C175.008 64.5509 173.395 64.5115 172.342 65.5637C169.707 68.1988 164.759 74.1192 166.287 78.147C167.052 80.1652 169.333 77.8509 170.009 76.9248C171.677 74.6403 173.247 71.9851 174.12 69.2859C174.451 68.2624 175.063 65.0886 174.87 66.147C174.042 70.702 173.398 74.5876 173.398 79.2581" stroke="#F26553" stroke-width="2" stroke-linecap="round"/>
<path d="M179.897 65.2582C179.765 64.3318 178.92 67.2462 178.897 67.3693C178.547 69.3057 177.151 79.277 179.286 80.1471C182.089 81.2889 185.025 68.746 185.397 67.2582" stroke="#F26553" stroke-width="2" stroke-linecap="round"/>
<path d="M185.898 65.2583C182.872 65.6365 184.74 78.8676 184.898 80.7583" stroke="#F26553" stroke-width="2" stroke-linecap="round"/>
<path d="M193.898 65.7581C193.898 60.0526 189.814 76.8729 190.509 82.5359C190.857 85.3653 200.227 79.0391 201.398 78.2581" stroke="#F26553" stroke-width="2" stroke-linecap="round"/>
<path d="M187.398 75.7584C187.67 73.5832 195.974 74.7584 197.398 74.7584" stroke="#F26553" stroke-width="2" stroke-linecap="round"/>
<path d="M207.398 56.2583C205.938 57.8814 205.814 60.3381 205.454 62.3694C204.432 68.1319 202.898 74.2558 202.898 80.1472C202.898 80.8363 203.174 82.099 203.51 80.7583C204.291 77.6316 204.394 74.4379 205.426 71.3416C205.755 70.3545 207.142 65.5792 208.871 66.1194C210.41 66.6005 210.472 70.3382 210.621 71.5083C211.011 74.5782 210.579 77.5266 210.426 80.5916C210.411 80.8899 210.398 83.4456 210.398 81.7583" stroke="#F26553" stroke-width="2" stroke-linecap="round"/>
<path d="M215.898 71.7582C214.409 74.8867 213.785 80.2247 215.676 83.286C216.998 85.4264 219.529 81.766 219.898 80.8416C220.611 79.0608 223.068 71.5929 219.732 70.8693C216.824 70.2387 214.398 73.9849 214.398 76.2582" stroke="#F26553" stroke-width="2" stroke-linecap="round"/>
<path d="M225.397 74.7585C224.835 77.567 223.567 80.176 223.23 83.203C223.043 84.8906 223.476 81.9682 223.508 81.7585C223.822 79.7049 224.491 77.615 225.147 75.6474C225.791 73.7166 227.996 72.4646 229.869 73.8696C231.791 75.3111 231.897 77.5906 231.897 79.7585" stroke="#F26553" stroke-width="2" stroke-linecap="round"/>
<path d="M246.4 57.7581C246.45 56.8657 246.697 56.1649 247.095 55.3692C248.041 53.4757 245.742 59.3816 245.095 61.397C243.814 65.3824 242.311 69.2992 241.122 73.3136C240.791 74.4317 239.937 76.3323 240.4 77.2581" stroke="#F26553" stroke-width="2" stroke-linecap="round"/>
<path d="M237.398 85.2583C238.855 85.4404 235.284 88.5014 234.898 88.7583" stroke="#F26553" stroke-width="2" stroke-linecap="round"/>
</svg>
