<svg width="36" height="36" viewBox="0 0 36 36" fill="none" xmlns="http://www.w3.org/2000/svg">
<path d="M14.9693 22.3115L22.689 17.8492L14.9693 13.3869V22.3115ZM32.1639 10.665C32.3573 11.364 32.4911 12.3011 32.5804 13.4911C32.6845 14.681 32.7291 15.7073 32.7291 16.5998L32.8184 17.8492C32.8184 21.1067 32.5804 23.5014 32.1639 25.0334C31.7921 26.3721 30.9293 27.2348 29.5907 27.6067C28.8916 27.8001 27.6124 27.9339 25.649 28.0232C23.7154 28.1273 21.9453 28.1719 20.3092 28.1719L17.9442 28.2612C11.7119 28.2612 7.82969 28.0232 6.29765 27.6067C4.95897 27.2348 4.09627 26.3721 3.72441 25.0334C3.53105 24.3344 3.39718 23.3973 3.30793 22.2073C3.20381 21.0174 3.15919 19.9911 3.15919 19.0986L3.06995 17.8492C3.06995 14.5918 3.30793 12.197 3.72441 10.665C4.09627 9.32628 4.95897 8.46358 6.29765 8.09172C6.99674 7.89836 8.27592 7.76449 10.2393 7.67524C12.173 7.57112 13.943 7.5265 15.5792 7.5265L17.9442 7.43726C24.1765 7.43726 28.0586 7.67524 29.5907 8.09172C30.9293 8.46358 31.7921 9.32628 32.1639 10.665Z" fill="#F5F1D4"/>
<path d="M14.9693 22.3115L22.689 17.8492L14.9693 13.3869V22.3115ZM32.1639 10.665C32.3573 11.364 32.4911 12.3011 32.5804 13.4911C32.6845 14.681 32.7291 15.7073 32.7291 16.5998L32.8184 17.8492C32.8184 21.1067 32.5804 23.5014 32.1639 25.0334C31.7921 26.3721 30.9293 27.2348 29.5907 27.6067C28.8916 27.8001 27.6124 27.9339 25.649 28.0232C23.7154 28.1273 21.9453 28.1719 20.3092 28.1719L17.9442 28.2612C11.7119 28.2612 7.82969 28.0232 6.29765 27.6067C4.95897 27.2348 4.09627 26.3721 3.72441 25.0334C3.53105 24.3344 3.39718 23.3973 3.30793 22.2073C3.20381 21.0174 3.15919 19.9911 3.15919 19.0986L3.06995 17.8492C3.06995 14.5918 3.30793 12.197 3.72441 10.665C4.09627 9.32628 4.95897 8.46358 6.29765 8.09172C6.99674 7.89836 8.27592 7.76449 10.2393 7.67524C12.173 7.57112 13.943 7.5265 15.5792 7.5265L17.9442 7.43726C24.1765 7.43726 28.0586 7.67524 29.5907 8.09172C30.9293 8.46358 31.7921 9.32628 32.1639 10.665Z" fill="#F5F1D4"/>
</svg>
