<svg width="37" height="30" viewBox="0 0 37 30" fill="none" xmlns="http://www.w3.org/2000/svg">
<path d="M11.9117 29.467C25.3832 29.467 32.7527 18.3046 32.7527 8.64157C32.7527 8.32921 32.7527 8.01239 32.7393 7.70003C34.174 6.66141 35.4123 5.37553 36.3961 3.90265C35.0559 4.49356 33.6357 4.88302 32.1815 5.05837C33.7132 4.1428 34.8605 2.70223 35.41 1.0044C33.9708 1.85697 32.3957 2.45547 30.7536 2.77369C29.6496 1.59794 28.1887 0.819037 26.5972 0.557637C25.0057 0.296237 23.3724 0.566928 21.9503 1.32778C20.5282 2.08863 19.3967 3.29718 18.731 4.76623C18.0653 6.23528 17.9027 7.88283 18.2682 9.4537C15.356 9.30768 12.507 8.55114 9.90598 7.23315C7.30498 5.91517 5.01007 4.06517 3.17009 1.80315C2.23601 3.41644 1.95094 5.32477 2.37279 7.14061C2.79463 8.95645 3.89176 10.5437 5.44138 11.58C4.28017 11.5405 3.14448 11.2287 2.12592 10.6697V10.7701C2.12792 12.4601 2.7134 14.0976 3.78337 15.4058C4.85335 16.714 6.3422 17.6127 7.99826 17.9499C7.36967 18.123 6.72034 18.2093 6.06833 18.2064C5.60868 18.2078 5.14996 18.1652 4.69842 18.0793C5.16648 19.5341 6.07787 20.8061 7.30493 21.7171C8.53199 22.6281 10.0133 23.1324 11.5413 23.1595C8.9455 25.1984 5.73902 26.3041 2.43828 26.2987C1.85667 26.3012 1.27547 26.2677 0.697998 26.1983C4.04808 28.3341 7.93869 29.4682 11.9117 29.467Z" fill="#F5F1D4"/>
</svg>
