<svg width="37" height="36" viewBox="0 0 37 36" fill="none" xmlns="http://www.w3.org/2000/svg">
<path d="M24.7519 4.83396C26.4763 4.83911 28.1286 5.52641 29.348 6.74577C30.5673 7.96513 31.2547 9.61746 31.2598 11.3419V24.3564C31.2547 26.0808 30.5673 27.7331 29.348 28.9525C28.1286 30.1718 26.4763 30.8591 24.7519 30.8643H11.7374C10.013 30.8591 8.36064 30.1718 7.14128 28.9525C5.92192 27.7331 5.23461 26.0808 5.22946 24.3564V11.3419C5.23461 9.61746 5.92192 7.96513 7.14128 6.74577C8.36064 5.52641 10.013 4.83911 11.7374 4.83396H24.7519ZM24.7519 2.2312H11.7374C6.72641 2.2312 2.62671 6.33091 2.62671 11.3419V24.3564C2.62671 29.3673 6.72641 33.467 11.7374 33.467H24.7519C29.7629 33.467 33.8626 29.3673 33.8626 24.3564V11.3419C33.8626 6.33091 29.7629 2.2312 24.7519 2.2312Z" fill="#F5F1D4"/>
<path d="M24.7519 4.83396C26.4763 4.83911 28.1286 5.52641 29.348 6.74577C30.5673 7.96513 31.2547 9.61746 31.2598 11.3419V24.3564C31.2547 26.0808 30.5673 27.7331 29.348 28.9525C28.1286 30.1718 26.4763 30.8591 24.7519 30.8643H11.7374C10.013 30.8591 8.36064 30.1718 7.14128 28.9525C5.92192 27.7331 5.23461 26.0808 5.22946 24.3564V11.3419C5.23461 9.61746 5.92192 7.96513 7.14128 6.74577C8.36064 5.52641 10.013 4.83911 11.7374 4.83396H24.7519ZM24.7519 2.2312H11.7374C6.72641 2.2312 2.62671 6.33091 2.62671 11.3419V24.3564C2.62671 29.3673 6.72641 33.467 11.7374 33.467H24.7519C29.7629 33.467 33.8626 29.3673 33.8626 24.3564V11.3419C33.8626 6.33091 29.7629 2.2312 24.7519 2.2312Z" fill="#F5F1D4"/>
<path d="M26.7045 11.3417C26.3184 11.3417 25.9409 11.2272 25.6199 11.0127C25.2988 10.7982 25.0486 10.4933 24.9008 10.1366C24.7531 9.77986 24.7144 9.38733 24.7897 9.00863C24.8651 8.62994 25.051 8.28208 25.324 8.00905C25.5971 7.73603 25.9449 7.5501 26.3236 7.47477C26.7023 7.39944 27.0948 7.4381 27.4516 7.58586C27.8083 7.73362 28.1132 7.98385 28.3277 8.30489C28.5422 8.62593 28.6567 9.00338 28.6567 9.3895C28.6573 9.64602 28.6071 9.90013 28.5092 10.1372C28.4113 10.3743 28.2675 10.5898 28.0861 10.7712C27.9048 10.9526 27.6893 11.0963 27.4522 11.1943C27.2151 11.2922 26.961 11.3423 26.7045 11.3417ZM18.245 12.6428C19.2747 12.6428 20.2813 12.9481 21.1374 13.5202C21.9936 14.0922 22.6609 14.9053 23.0549 15.8566C23.449 16.808 23.5521 17.8547 23.3512 18.8647C23.1503 19.8746 22.6544 20.8022 21.9263 21.5303C21.1982 22.2584 20.2706 22.7543 19.2607 22.9551C18.2508 23.156 17.204 23.0529 16.2527 22.6589C15.3014 22.2648 14.4883 21.5975 13.9162 20.7414C13.3441 19.8852 13.0388 18.8787 13.0388 17.849C13.0403 16.4687 13.5893 15.1453 14.5653 14.1693C15.5413 13.1932 16.8647 12.6442 18.245 12.6428ZM18.245 10.04C16.7005 10.04 15.1908 10.498 13.9066 11.3561C12.6224 12.2141 11.6215 13.4337 11.0305 14.8606C10.4394 16.2875 10.2848 17.8576 10.5861 19.3724C10.8874 20.8872 11.6311 22.2786 12.7232 23.3707C13.8153 24.4628 15.2068 25.2066 16.7215 25.5079C18.2363 25.8092 19.8065 25.6546 21.2334 25.0635C22.6603 24.4725 23.8799 23.4716 24.7379 22.1874C25.596 20.9032 26.054 19.3934 26.054 17.849C26.054 15.7779 25.2312 13.7917 23.7668 12.3272C22.3023 10.8627 20.3161 10.04 18.245 10.04Z" fill="#F5F1D4"/>
<path d="M26.7045 11.3417C26.3184 11.3417 25.9409 11.2272 25.6199 11.0127C25.2988 10.7982 25.0486 10.4933 24.9008 10.1366C24.7531 9.77986 24.7144 9.38733 24.7897 9.00863C24.8651 8.62994 25.051 8.28208 25.324 8.00905C25.5971 7.73603 25.9449 7.5501 26.3236 7.47477C26.7023 7.39944 27.0948 7.4381 27.4516 7.58586C27.8083 7.73362 28.1132 7.98385 28.3277 8.30489C28.5422 8.62593 28.6567 9.00338 28.6567 9.3895C28.6573 9.64602 28.6071 9.90013 28.5092 10.1372C28.4113 10.3743 28.2675 10.5898 28.0861 10.7712C27.9048 10.9526 27.6893 11.0963 27.4522 11.1943C27.2151 11.2922 26.961 11.3423 26.7045 11.3417ZM18.245 12.6428C19.2747 12.6428 20.2813 12.9481 21.1374 13.5202C21.9936 14.0922 22.6609 14.9053 23.0549 15.8566C23.449 16.808 23.5521 17.8547 23.3512 18.8647C23.1503 19.8746 22.6544 20.8022 21.9263 21.5303C21.1982 22.2584 20.2706 22.7543 19.2607 22.9551C18.2508 23.156 17.204 23.0529 16.2527 22.6589C15.3014 22.2648 14.4883 21.5975 13.9162 20.7414C13.3441 19.8852 13.0388 18.8787 13.0388 17.849C13.0403 16.4687 13.5893 15.1453 14.5653 14.1693C15.5413 13.1932 16.8647 12.6442 18.245 12.6428ZM18.245 10.04C16.7005 10.04 15.1908 10.498 13.9066 11.3561C12.6224 12.2141 11.6215 13.4337 11.0305 14.8606C10.4394 16.2875 10.2848 17.8576 10.5861 19.3724C10.8874 20.8872 11.6311 22.2786 12.7232 23.3707C13.8153 24.4628 15.2068 25.2066 16.7215 25.5079C18.2363 25.8092 19.8065 25.6546 21.2334 25.0635C22.6603 24.4725 23.8799 23.4716 24.7379 22.1874C25.596 20.9032 26.054 19.3934 26.054 17.849C26.054 15.7779 25.2312 13.7917 23.7668 12.3272C22.3023 10.8627 20.3161 10.04 18.245 10.04Z" fill="#F5F1D4"/>
</svg>
