<svg width="199" height="446" viewBox="0 0 199 446" fill="none" xmlns="http://www.w3.org/2000/svg">
<path d="M58.3881 210.467C56.9341 209.409 49.0699 203.582 47.8777 203.204C31.7326 198.087 35.2001 228.625 35.7664 233.471C41.5018 282.555 74.0241 326.906 108.642 360.525C139.596 390.586 270.459 479.196 278.809 385.06C280.317 368.06 276.496 350.377 270.229 333.512M90.7063 160.159C76.9081 153.66 50.1306 140.112 33.6602 148.69C0.223731 166.105 61.3192 239.749 71.8272 252.868C119.323 312.163 181.344 363.691 245.581 403.824C266.692 417.013 348.593 471.188 368.707 426.94C374.851 413.424 373.457 387.215 371.379 374.373C368.742 358.07 364.444 341.994 358.936 326.285C350.13 301.169 338.229 276.993 325.074 254.336M270.229 333.512C216.361 289.712 167.878 237.374 121.677 188.32C85.0943 149.48 45.8489 109.196 17.1312 63.8224C9.40676 51.6178 -0.830203 35.5189 1.57615 19.5809C9.54282 -33.1847 121.145 43.3979 133.509 52.1535C169.93 77.9464 205.048 107.338 236.87 139.883M270.229 333.512C295.965 354.437 322.929 373.413 351.461 389.151C370.086 399.424 394.23 412.703 417.294 409.16C450.326 404.086 451.8 362.654 449.548 337.559C446.219 300.46 434.96 263.883 419.205 228.593" stroke="#F5F1D4" stroke-width="2" stroke-linecap="round"/>
</svg>
