<svg width="165" height="154" viewBox="0 0 165 154" fill="none" xmlns="http://www.w3.org/2000/svg">
<g opacity="0.8">
<path d="M102.766 42.5493C105.154 43.3715 103.271 40.2049 101.135 41.0619C98.6809 42.0461 93.8013 45.5271 94.6478 48.8646C95.1211 50.7307 97.1137 49.5921 98.1205 49.0372C100.106 47.9429 102.011 46.0876 103.419 44.3331C104.264 43.2794 104.507 41.0238 102.853 42.5793C101.78 43.5888 101.975 47.2053 101.811 48.5055C101.772 48.8163 101.618 52.6294 101.635 50.9293" stroke="white" stroke-width="1.65835" stroke-linecap="round"/>
<path d="M108.769 45.4944C109.176 42.4859 105.881 51.2125 106.199 54.2316C106.345 55.6174 112.773 50.0478 113.084 49.6596C114.439 47.9699 114.183 45.0533 112.933 48.6821C111.503 52.836 110.297 56.9566 109.248 61.2251C108.044 66.1263 106.417 69.1902 103.254 72.9732C101.125 75.5198 99.1441 71.3026 97.8967 69.6426C96.2357 67.4323 97.53 66.675 98.3575 64.2716" stroke="white" stroke-width="1.65835" stroke-linecap="round"/>
<path d="M147.431 60.5603C146.838 60.3562 148.159 60.3726 148.11 60.3558C147.143 60.0228 148.284 59.492 147.701 59.7763" stroke="white" stroke-width="1.65835" stroke-linecap="round"/>
<path d="M145.416 65.1288C146.146 65.3803 146.864 65.6859 145.568 65.9607C145.111 66.0574 145.833 65.7112 146.065 65.7907" stroke="white" stroke-width="1.65835" stroke-linecap="round"/>
<path d="M87.4724 18.8036C90.729 9.34589 80.6628 37.615 77.1989 46.9993" stroke="white" stroke-width="1.65835" stroke-linecap="round"/>
<path d="M87.9388 17.4533C89.2403 17.9014 90.1213 18.0549 90.9722 19.3093C94.577 24.623 99.3386 35.2861 94.5375 40.4051C91.9531 43.1606 88.4692 45.1655 84.5152 45.9928C79.6902 47.0023 76.2704 46.4025 71.799 44.6364" stroke="white" stroke-width="1.65835" stroke-linecap="round"/>
<path d="M123.78 50.3281C124.673 49.9556 124.716 50.5916 124.507 50.5197C124.207 50.4165 123.853 49.529 124.394 49.482C126.782 49.2747 129.779 49.6543 126.575 51.9369C124.673 53.2917 120.602 54.882 120.09 57.4599C119.633 59.7623 122.25 60.2615 123.905 59.8605C129.041 58.6164 121.638 53.4161 123.144 50.6381" stroke="#DFDFDF" stroke-width="2" stroke-linecap="round"/>
<path d="M129.552 58.1326C132.699 58.8395 140.121 50.9954 138.013 53.4372C136.349 55.3657 134.034 56.9499 132.878 59.3074C132.491 60.0972 131.38 63.5105 130.613 62.7286" stroke="#DFDFDF" stroke-width="2" stroke-linecap="round"/>
<path d="M136.806 60.1014C138.39 60.4346 145.562 52.4992 142.271 57.2827C141.409 58.5357 138.227 67.3003 137.689 66.7512" stroke="#DFDFDF" stroke-width="2" stroke-linecap="round"/>
<path d="M33.216 46.1141C33.7126 46.2185 34.0063 45.8609 33.371 46.4319C31.4012 48.2021 30.5632 52.9961 29.6288 55.3376C27.5751 60.4838 21.839 76.0837 23.6429 70.8448" stroke="#DFDFDF" stroke-width="2" stroke-linecap="round"/>
<path d="M23.2569 45.8576C23.7343 45.6585 24.1978 45.6132 24.7092 45.5645C28.3454 45.2179 33.0177 46.9083 36.5744 47.6229C40.104 48.332 43.6222 49.2535 47.1267 50.0812C47.7952 50.2391 51.935 52.1454 50.7237 50.5559" stroke="#DFDFDF" stroke-width="2" stroke-linecap="round"/>
<path d="M37.4097 53.9037C35.4167 58.2346 33.9303 63.0356 31.2707 67.1254C30.4245 68.4265 29.6399 69.8451 29.2786 71.375C29.0241 72.4523 30.5922 69.593 31.2551 68.7064C32.1851 67.4625 34.7347 62.9021 36.6563 66.1595C37.2148 67.1062 34.7752 76.5286 36.587 73.1864" stroke="#DFDFDF" stroke-width="2" stroke-linecap="round"/>
<path d="M39.4378 72.5818C40.8651 72.0719 42.4139 72.3101 43.9352 71.7214C44.7327 71.4127 48.379 69.1593 45.3274 68.6166C41.6056 67.9546 40.9855 71.7781 40.6312 74.491C40.1693 78.0287 43.2819 77.4461 46.0252 78.0229" stroke="#DFDFDF" stroke-width="2" stroke-linecap="round"/>
<path d="M69.9354 74.6216C71.4569 75.1455 70.6098 74.2681 69.6254 73.986C68.5897 73.6893 63.5883 75.3698 64.5553 75.9125C66.1434 76.8039 71.8736 80.3058 70.1527 82.8636C68.3246 85.581 61.8427 81.4182 60.875 79.434" stroke="#DFDFDF" stroke-width="2" stroke-linecap="round"/>
<path d="M76.7166 76.4281C77.972 75.7217 77.2685 76.6715 76.7226 77.6052C75.4007 79.8665 73.7916 81.8514 72.9224 84.3758C71.9053 87.3297 79.435 85.3626 80.4363 84.0546" stroke="#DFDFDF" stroke-width="2" stroke-linecap="round"/>
<path d="M71.7795 80.016C73.0805 80.2896 76.7345 80.7947 77.631 79.9156" stroke="#DFDFDF" stroke-width="2" stroke-linecap="round"/>
<path d="M88.3573 82.5514C89.3613 79.6357 85.149 80.6197 83.5548 81.3972C81.8546 82.2265 81.0236 84.5532 81.3448 86.3651C81.7369 88.5765 83.3825 87.1296 84.7334 86.5917C86.4483 85.9089 87.7361 84.7199 88.8684 83.2856C90.1314 81.6857 88.5841 82.2819 88.04 83.5585C87.5103 84.8012 85.3898 90.7792 85.28 89.9528" stroke="#DFDFDF" stroke-width="2" stroke-linecap="round"/>
<path d="M91.3217 82.9098C90.8274 84.3456 90.333 85.7814 89.8386 87.2171C88.2549 91.8165 89.94 89.2147 91.3198 86.6695C92.2731 84.911 92.9559 82.982 95.385 83.31C96.5737 83.4705 97.6148 86.1343 97.6148 86.1343" stroke="#DFDFDF" stroke-width="2" stroke-linecap="round"/>
<path d="M102.23 86.7993C103.285 86.1949 96.304 86.6775 100.922 89.4042C101.773 89.9071 103.386 90.0374 103.477 91.283C103.581 92.6918 102.12 93.4717 100.933 93.6385C98.4417 93.9884 95.3841 92.9991 95.0764 90.6818" stroke="#DFDFDF" stroke-width="2" stroke-linecap="round"/>
<path d="M121.116 79.5534C120.316 81.8764 113.515 98.0886 113.659 98.1382" stroke="#DFDFDF" stroke-width="2" stroke-linecap="round"/>
<path d="M120.031 93.4578C118.248 93.0829 116.247 100.85 117.737 101.657C121.094 103.478 126.265 92.8554 120.504 93.6206" stroke="#DFDFDF" stroke-width="2" stroke-linecap="round"/>
<path d="M127.432 96.5349C128.317 96.7209 127.788 96.2059 127.368 96.8066C126.192 98.4891 125.48 100.469 126.125 102.548C127.239 106.135 135.969 95.1755 129.176 96.0777" stroke="#DFDFDF" stroke-width="2" stroke-linecap="round"/>
<path d="M141.253 90.1885C140.055 93.6675 137.944 96.7276 136.735 100.237C136.397 101.22 133.864 107.038 134.463 105.301" stroke="#DFDFDF" stroke-width="2" stroke-linecap="round"/>
<path d="M142.105 100.001C141.224 100.496 136.032 102.863 137.439 103.653C139.056 104.56 142.047 108.565 141.864 108.379" stroke="#DFDFDF" stroke-width="2" stroke-linecap="round"/>
<path d="M72.5848 94.571C73.9002 94.8476 70.2993 101.637 69.7813 102.713C68.4444 105.49 67.3547 108.225 66.3513 111.139C66.1028 111.86 65.6065 114.982 65.1279 113.156" stroke="#DFDFDF" stroke-width="2" stroke-linecap="round"/>
<path d="M67.2285 108.591C68.5115 109.033 74.6144 110.007 74.0051 111.777C72.8969 114.995 69.4524 114.716 66.8561 114.28" stroke="#DFDFDF" stroke-width="2" stroke-linecap="round"/>
<path d="M76.048 112.157C76.1607 111.83 75.2057 114.603 74.999 115.204C74.1135 117.775 74.9873 116.446 75.6608 114.903C76.1309 113.825 77.6921 111.207 79.1319 111.221C80.3546 111.233 81.4356 112.954 82.0467 113.165" stroke="#DFDFDF" stroke-width="2" stroke-linecap="round"/>
<path d="M83.9378 113.816C83.1272 115.469 81.0751 120.594 81.6745 118.853" stroke="#DFDFDF" stroke-width="2" stroke-linecap="round"/>
<path d="M85.0774 110.507C84.7948 111.327 84.7948 111.327 85.0774 110.507" stroke="#DFDFDF" stroke-width="2" stroke-linecap="round"/>
<path d="M87.395 116.064C85.6073 115.688 83.6227 121.363 85.3142 122.193C88.3325 123.673 90.5139 119.24 90.7259 116.8C90.96 114.104 86.8829 114.101 86.3948 116.836C85.6981 120.739 87.185 121.394 89.9335 118.76C90.4147 118.298 92.5633 116.039 91.2326 117.973C88.3719 122.132 87.6687 127.342 85.1853 131.696C83.5417 134.578 80.4873 139.023 76.5486 136.302C72.355 133.404 80.0204 128.832 81.9072 127.395" stroke="#DFDFDF" stroke-width="2" stroke-linecap="round"/>
<path d="M98.3766 108.74C98.901 107.217 97.5564 112.485 97.2612 113.174C96.1878 115.679 95.2526 118.299 93.9892 120.714C92.886 122.823 93.5492 122.427 94.6024 120.896C95.2265 119.989 97.867 117.323 98.1951 120.018C98.28 120.715 97.7428 128.09 98.2207 124.551" stroke="#DFDFDF" stroke-width="2" stroke-linecap="round"/>
<path d="M104.428 120.342C104.95 119.279 107.274 115.917 105.422 119.333C104.302 121.4 102.438 124.344 102.327 126.787C102.224 129.036 107.784 126.18 108.326 125.915" stroke="#DFDFDF" stroke-width="2" stroke-linecap="round"/>
<path d="M101.561 122.528C102.805 122.01 109.676 121.945 106.467 122.102" stroke="#DFDFDF" stroke-width="2" stroke-linecap="round"/>
<path d="M111.652 125.474C111.593 125.453 113.704 125.216 114.558 124.8C117.008 123.605 118.634 121.107 114.5 121.812C111.563 122.314 108.233 129.828 112.093 129.739C115.238 129.666 117.545 128.023 119.085 125.389" stroke="#DFDFDF" stroke-width="2" stroke-linecap="round"/>
<path d="M119.41 124.444C117.969 125.991 117.557 128.292 116.885 130.243C116.717 130.729 118.875 127.028 119.34 126.27C120.16 124.932 122.394 123.632 122.979 126.025C123.47 128.034 123.442 129.885 125.703 127.668" stroke="#DFDFDF" stroke-width="2" stroke-linecap="round"/>
<path d="M124.842 134.775C124.529 135.412 123.007 135.686 124.679 135.247" stroke="#DFDFDF" stroke-width="2" stroke-linecap="round"/>
<path d="M126.881 136.535C127.204 137.098 127.453 136.91 126.718 137.007" stroke="#DFDFDF" stroke-width="2" stroke-linecap="round"/>
<path d="M130.663 137.837C130.52 138.254 131.08 137.98 130.663 137.837" stroke="#DFDFDF" stroke-width="2" stroke-linecap="round"/>
</g>
</svg>
