<svg width="62" height="27" viewBox="0 0 62 27" fill="none" xmlns="http://www.w3.org/2000/svg">
<rect x="5" y="6" width="52" height="18" fill="#0D0D1A"/>
<path fill-rule="evenodd" clip-rule="evenodd" d="M1.29097 23.6505C-0.0216988 21.8003 -0.356373 19.4287 0.393038 17.2875L4.80304 4.68755C5.7857 1.87994 8.43544 0 11.41 0H14.29C15.1617 0 16.0059 0.161489 16.7885 0.460723C17.5657 0.163078 18.4095 0 19.2914 0H21.3434C22.7704 0 24.0977 0.427014 25.2044 1.16023C26.3112 0.427014 27.6385 0 29.0655 0H31.1175C31.3618 0 31.6031 0.0125096 31.8409 0.0369229C32.0787 0.0125096 32.32 0 32.5643 0H41.8163C42.0828 0 42.3459 0.0148983 42.6047 0.0439074C42.8635 0.0148983 43.1265 0 43.3931 0H46.3631C47.359 0 48.3246 0.211552 49.205 0.602799C50.0746 0.215355 51.0377 0 52.0511 0H54.1031C57.9691 0 61.1031 3.13401 61.1031 7V19.6C61.1031 23.466 57.9691 26.6 54.1031 26.6H51.1691C50.174 26.6 49.2091 26.3888 48.3292 25.9981C47.4498 26.3963 46.4733 26.618 45.4451 26.618H43.3931C43.1209 26.618 42.8523 26.6025 42.5882 26.5722C42.3813 26.5906 42.1719 26.6 41.9603 26.6H32.5643C32.32 26.6 32.0787 26.5875 31.8409 26.5631C31.6031 26.5875 31.3618 26.6 31.1175 26.6H29.0655C28.8991 26.6 28.734 26.5942 28.5705 26.5828C28.4069 26.5942 28.2418 26.6 28.0754 26.6H19.2914C19.2314 26.6 19.1716 26.5992 19.1119 26.5977C19.0528 26.5992 18.9934 26.6 18.934 26.6H16.774C15.3944 26.6 14.0833 26.1954 12.9761 25.4801C11.8696 26.1949 10.5589 26.6 9.17805 26.6H7.00005C4.73151 26.6 2.60363 25.5007 1.29097 23.6505ZM16.774 19.6H18.934L14.29 7H11.41L7.00005 19.6H9.17805L10.852 14.776H14.974L16.774 19.6ZM11.572 12.724H14.218L12.85 9.052L11.572 12.724ZM19.2914 7V19.6H28.0754V17.548H21.3434V7H19.2914ZM29.0655 19.6H31.1175V7H29.0655V19.6ZM32.5643 7V19.6H41.9603V17.548H34.6163V14.002H41.4203V11.95H34.6163V9.052H41.8163V7H32.5643ZM46.3631 7H43.3931V19.618H45.4451V9.556L51.1691 19.6H54.1031V7H52.0511V16.972L46.3631 7Z" fill="#F5F1D4"/>
</svg>
