<svg width="143" height="28" viewBox="0 0 143 28" fill="none" xmlns="http://www.w3.org/2000/svg">
<rect x="121.988" y="6.48828" width="13" height="13" fill="#DFDFDF"/>
<path d="M7 19.852H12.616C16.36 19.852 18.484 17.566 18.484 13.534C18.466 9.52 16.342 7.252 12.58 7.252H7V19.852ZM9.196 17.656V9.448H12.58C15.1 9.448 16.27 10.708 16.288 13.534C16.288 16.36 15.118 17.656 12.616 17.656H9.196Z" fill="#DFDFDF"/>
<path d="M18.1241 19.852H20.3021L21.9761 15.028H26.0981L27.8981 19.852H30.0581L25.4141 7.252H22.5341L18.1241 19.852ZM22.6961 12.976L23.9741 9.304L25.3421 12.976H22.6961Z" fill="#DFDFDF"/>
<path d="M30.4155 19.852H32.4675V14.2H33.9615L38.2095 19.852H40.8915L36.5715 14.2C38.7495 14.146 40.2255 12.76 40.2255 10.69C40.2255 8.602 38.7135 7.252 36.4275 7.252H30.4155V19.852ZM32.4675 12.148V9.304H36.4275C37.6155 9.304 38.1735 9.79 38.1735 10.69C38.1735 11.626 37.5975 12.148 36.4275 12.148H32.4675Z" fill="#DFDFDF"/>
<path d="M41.7892 19.852H43.8412V18.232L46.4512 14.668L50.2492 19.852H52.8052L47.7292 12.922L51.8512 7.252H49.3132L43.8412 14.74V7.252H41.7892V19.852Z" fill="#DFDFDF"/>
<path d="M58.5602 19.852H60.6122V10.186L63.8522 19.852H66.3902L69.8282 10.132V19.852H71.8802V7.252H68.6222L65.1482 16.81L61.8722 7.252H58.5602V19.852Z" fill="#DFDFDF"/>
<path d="M72.4265 19.852H74.6045L76.2785 15.028H80.4005L82.2005 19.852H84.3605L79.7165 7.252H76.8365L72.4265 19.852ZM76.9985 12.976L78.2765 9.304L79.6445 12.976H76.9985Z" fill="#DFDFDF"/>
<path d="M86.7462 19.834H88.7982V9.304H92.9022V7.252H82.6422V9.304H86.7462V19.834Z" fill="#DFDFDF"/>
<path d="M96.7313 19.834H98.7833V9.304H102.887V7.252H92.6273V9.304H96.7313V19.834Z" fill="#DFDFDF"/>
<path d="M103.51 19.852H112.906V17.8H105.562V14.254H112.366V12.202H105.562V9.304H112.762V7.252H103.51V19.852Z" fill="#DFDFDF"/>
<path d="M114.339 19.852H116.391V14.2H117.885L122.133 19.852H124.815L120.495 14.2C122.673 14.146 124.149 12.76 124.149 10.69C124.149 8.602 122.637 7.252 120.351 7.252H114.339V19.852ZM116.391 12.148V9.304H120.351C121.539 9.304 122.097 9.79 122.097 10.69C122.097 11.626 121.521 12.148 120.351 12.148H116.391Z" fill="#DFDFDF"/>
<path d="M130.437 20.122C133.407 20.122 135.351 18.61 135.351 16.252C135.351 14.362 133.929 12.94 131.733 12.544L129.717 12.184C128.133 11.896 127.629 11.446 127.629 10.546C127.629 9.646 128.511 8.962 130.077 8.962C131.823 8.962 132.849 9.916 132.993 11.464L135.045 11.284C134.793 8.638 132.867 7 130.077 7C127.395 7 125.577 8.404 125.577 10.546C125.577 12.562 126.855 13.768 129.357 14.2L131.373 14.56C132.633 14.776 133.299 15.406 133.299 16.252C133.299 17.386 132.291 18.07 130.437 18.07C128.385 18.07 127.107 17.062 126.963 15.388L124.911 15.568C125.145 18.322 127.341 20.122 130.437 20.122Z" fill="#DFDFDF"/>
<path fill-rule="evenodd" clip-rule="evenodd" d="M7 26.852C3.13401 26.852 0 23.718 0 19.852V7.252C0 3.38601 3.13401 0.252 7 0.252H12.58C14.5612 0.252 16.6153 0.623448 18.5106 1.52388C19.6626 0.714723 21.0584 0.252 22.5341 0.252H25.4141C26.2858 0.252 27.13 0.413489 27.9126 0.712724C28.6898 0.415078 29.5336 0.252 30.4155 0.252H36.4275C37.424 0.252 38.4591 0.37131 39.4831 0.640753C40.2052 0.388893 40.9812 0.252 41.7892 0.252H43.8412C44.8129 0.252 45.7384 0.449999 46.5795 0.807855C47.4329 0.445777 48.3609 0.252 49.3132 0.252H51.8512C53.0456 0.252 54.1942 0.556051 55.2043 1.10734C56.2007 0.562024 57.3442 0.252 58.5602 0.252H61.8722C63.0811 0.252 64.236 0.562464 65.2472 1.11924C66.2589 0.562208 67.414 0.252 68.6222 0.252H71.8802C72.7535 0.252 73.5895 0.411945 74.3605 0.704142C75.1365 0.410484 75.9728 0.252 76.8365 0.252H79.7165C80.2143 0.252 80.7032 0.304682 81.1768 0.405624C81.6494 0.304967 82.1396 0.252 82.6422 0.252H102.887C102.992 0.252 103.095 0.254285 103.199 0.258807C103.302 0.254285 103.406 0.252 103.51 0.252H112.762C113.029 0.252 113.292 0.266898 113.551 0.295908C113.809 0.266898 114.073 0.252 114.339 0.252H120.351C121.792 0.252 123.314 0.501551 124.767 1.09389C126.507 0.308604 128.357 0 130.077 0C132.846 0 135.733 0.828336 138.074 2.83985C140.453 4.88299 141.735 7.6937 142.014 10.6203C142.089 11.4079 142.029 12.1944 141.844 12.9484C142.17 13.9507 142.351 15.0522 142.351 16.252C142.351 19.5524 140.9 22.561 138.33 24.578C135.924 26.4658 133.035 27.122 130.437 27.122C129.171 27.122 127.889 26.959 126.645 26.609C126.056 26.7682 125.442 26.852 124.815 26.852H122.133C121.131 26.852 120.155 26.6372 119.264 26.2371C118.388 26.6322 117.415 26.852 116.391 26.852H114.339C114.097 26.852 113.858 26.8397 113.623 26.8158C113.387 26.8397 113.148 26.852 112.906 26.852H103.51C102.671 26.852 101.867 26.7045 101.122 26.4339C100.39 26.693 99.6033 26.834 98.7833 26.834H96.7313C95.2586 26.834 93.8922 26.3792 92.7647 25.6025C91.6373 26.3792 90.2708 26.834 88.7982 26.834H86.7462C86.3567 26.834 85.9747 26.8022 85.6025 26.741C85.1962 26.8143 84.7808 26.852 84.3605 26.852H82.2005C80.8209 26.852 79.5098 26.4474 78.4025 25.7321C77.2961 26.4469 75.9854 26.852 74.6045 26.852H72.4265C72.3356 26.852 72.2449 26.8502 72.1544 26.8467C72.0634 26.8502 71.972 26.852 71.8802 26.852H69.8282C69.2341 26.852 68.6574 26.778 68.1067 26.6387C67.5541 26.7785 66.9785 26.852 66.3902 26.852H63.8522C63.2987 26.852 62.7567 26.7869 62.2346 26.663C61.7139 26.7866 61.1707 26.852 60.6122 26.852H58.5602C57.5338 26.852 56.5589 26.6311 55.6807 26.2342C54.7924 26.6346 53.8152 26.852 52.8052 26.852H50.2492C49.1196 26.852 48.0242 26.5793 47.0468 26.0765C46.0864 26.5721 44.9965 26.852 43.8412 26.852H41.7892C41.6379 26.852 41.4878 26.8472 41.3389 26.8377C41.1906 26.8472 41.0414 26.852 40.8915 26.852H38.2095C37.207 26.852 36.2311 26.6372 35.3406 26.2371C34.464 26.6322 33.4914 26.852 32.4675 26.852H30.4155C30.3555 26.852 30.2957 26.8512 30.236 26.8497C30.1768 26.8512 30.1175 26.852 30.0581 26.852H27.8981C26.5185 26.852 25.2074 26.4474 24.1002 25.7321C22.9937 26.4469 21.683 26.852 20.3021 26.852H18.1241C17.3575 26.852 16.6069 26.7264 15.8984 26.4888C14.8089 26.7392 13.7022 26.852 12.616 26.852H7ZM27.8981 19.852H30.0581L25.4141 7.252H22.5341L18.1241 19.852H20.3021L21.9761 15.028H26.0981L27.8981 19.852ZM22.6961 12.976H25.3421L23.9741 9.304L22.6961 12.976ZM18.1241 16.1272C18.2796 15.6308 18.3856 15.0881 18.4404 14.5014C18.4612 14.2789 18.4746 14.05 18.4805 13.815C18.4828 13.7223 18.484 13.6286 18.484 13.534C18.484 13.5293 18.484 13.5247 18.4839 13.52C18.4826 13.2916 18.4745 13.0689 18.4596 12.852C18.4251 12.349 18.3544 11.877 18.2485 11.4371C18.2477 11.4338 18.2469 11.4305 18.2461 11.4272C18.0828 10.753 17.8367 10.1547 17.5117 9.63637C17.2974 9.29448 17.0487 8.98745 16.7668 8.71652C16.2728 8.24179 15.6768 7.87792 14.9849 7.63161C14.6756 7.52151 14.3471 7.4349 14 7.37238C13.5567 7.29254 13.083 7.252 12.58 7.252H7V19.852H12.616C13.1054 19.852 13.5671 19.8129 14 19.736C14.7038 19.611 15.3315 19.3859 15.8782 19.0659C16.131 18.918 16.3664 18.7498 16.5841 18.5618C16.9077 18.2823 17.192 17.9592 17.4354 17.594C17.7229 17.1627 17.9533 16.6729 18.1241 16.1272ZM16.196 14.7831C16.2571 14.4086 16.2876 13.9958 16.288 13.5438C16.288 13.5406 16.288 13.5373 16.288 13.534C16.2869 13.3668 16.2818 13.2051 16.2727 13.0488C16.2578 12.7959 16.2323 12.5573 16.196 12.3325C16.143 12.0045 16.0669 11.7061 15.9672 11.4366C15.9474 11.383 15.9266 11.3305 15.9049 11.2791C15.5764 10.502 15.033 9.98427 14.2598 9.70324C14.1759 9.67274 14.0893 9.64503 14 9.62008C13.5858 9.50439 13.1131 9.448 12.58 9.448H9.196V17.656H12.616C13.0084 17.656 13.3681 17.6241 13.6956 17.5594C13.8004 17.5388 13.9018 17.5147 14 17.4873C15.0885 17.1834 15.7755 16.4636 16.0889 15.2879C16.1315 15.1281 16.1671 14.9598 16.196 14.7831ZM30.4155 7.252V19.852H32.4675V14.2H33.9615L38.2095 19.852H40.8915L36.5715 14.2C36.6626 14.1977 36.7526 14.1931 36.8412 14.1863C37.0393 14.1709 37.2309 14.1441 37.4155 14.1064C37.6973 14.0489 37.9628 13.966 38.2095 13.8597C38.292 13.824 38.3725 13.7858 38.4508 13.745C38.8812 13.5208 39.2456 13.2192 39.5302 12.852C39.7379 12.584 39.9031 12.281 40.0202 11.9477C40.0747 11.7927 40.1188 11.6311 40.1519 11.4634C40.1556 11.4449 40.1591 11.4264 40.1625 11.4077C40.1935 11.2372 40.2133 11.0604 40.2214 10.878C40.2241 10.816 40.2255 10.7533 40.2255 10.69C40.2255 9.89698 40.0074 9.21042 39.6116 8.66383C39.124 7.99046 38.3668 7.52954 37.4155 7.34378C37.2312 7.30779 37.0396 7.28212 36.8412 7.26725C36.7064 7.25713 36.5684 7.252 36.4275 7.252H30.4155ZM32.4675 12.148H36.4275C36.4589 12.148 36.49 12.1476 36.5206 12.1469C36.5842 12.1453 36.646 12.1421 36.7059 12.1373C36.7521 12.1336 36.7972 12.129 36.8412 12.1234C37.0597 12.0956 37.251 12.0446 37.4155 11.9713C37.8145 11.7934 38.0549 11.4846 38.1392 11.06C38.1621 10.9451 38.1735 10.8216 38.1735 10.69C38.1735 10.0928 37.9278 9.67795 37.4155 9.46634C37.2516 9.39865 37.0604 9.35176 36.8412 9.32637C36.7195 9.31226 36.5892 9.30479 36.4501 9.30406C36.4426 9.30402 36.435 9.304 36.4275 9.304H32.4675V12.148ZM41.7892 7.252V19.852H43.8412V18.232L46.4512 14.668L50.2492 19.852H52.8052L47.7292 12.922L51.8512 7.252H49.3132L43.8412 14.74V7.252H41.7892ZM58.5602 19.852H60.6122V10.186L63.8522 19.852H66.3902L69.8282 10.132V19.852H71.8802V7.252H68.6222L65.1482 16.81L61.8722 7.252H58.5602V19.852ZM72.4265 19.852H74.6045L76.2785 15.028H80.4005L82.2005 19.852H84.3605L79.7165 7.252H76.8365L72.4265 19.852ZM76.9985 12.976L78.2765 9.304L79.6445 12.976H76.9985ZM82.6422 9.304H86.7462V19.834H88.7982V9.304H96.7313V19.834H98.7833V9.304H102.887V7.252H82.6422V9.304ZM103.51 7.252V19.852H112.906V17.8H105.562V14.254H112.366V12.202H105.562V9.304H112.762V7.252H103.51ZM114.339 7.252V19.852H116.391V14.2H117.885L122.133 19.852H124.815L121.746 15.8369L120.495 14.2C120.79 14.1927 121.072 14.161 121.339 14.1064C121.355 14.1033 121.37 14.1001 121.385 14.0967C121.65 14.0398 121.9 13.9602 122.133 13.8597C122.669 13.6283 123.117 13.286 123.454 12.852C123.758 12.4593 123.971 11.9917 124.076 11.4634C124.113 11.2757 124.136 11.0803 124.145 10.878C124.148 10.816 124.149 10.7533 124.149 10.69C124.149 10.6416 124.148 10.5936 124.147 10.546C124.122 9.83034 123.916 9.20605 123.56 8.69902C123.074 8.00651 122.307 7.53276 121.339 7.34378C121.318 7.33962 121.296 7.3356 121.275 7.33171C120.984 7.27915 120.675 7.252 120.351 7.252H114.339ZM116.391 12.148H120.351C120.383 12.148 120.414 12.1476 120.444 12.1469C120.508 12.1453 120.57 12.1421 120.629 12.1373C120.678 12.1335 120.725 12.1285 120.771 12.1226C120.987 12.0946 121.176 12.0438 121.339 11.9713C121.738 11.7934 121.979 11.4846 122.063 11.06C122.086 10.9451 122.097 10.8216 122.097 10.69C122.097 10.6408 122.095 10.5928 122.092 10.546C122.057 10.0552 121.836 9.70224 121.417 9.50086C121.391 9.48881 121.366 9.4773 121.339 9.46634C121.164 9.39389 120.957 9.34527 120.718 9.32133C120.61 9.31048 120.495 9.3047 120.374 9.30406C120.366 9.30402 120.359 9.304 120.351 9.304H116.391V12.148ZM128.374 7.21523C127.526 7.44717 126.835 7.85915 126.351 8.41479C125.902 8.93183 125.632 9.57327 125.585 10.3098C125.58 10.3875 125.577 10.4662 125.577 10.546C125.577 10.5945 125.578 10.6425 125.579 10.69C125.6 11.341 125.758 11.9043 126.053 12.3811C126.057 12.3862 126.06 12.3913 126.063 12.3964C126.247 12.6891 126.482 12.9491 126.769 13.1765C126.876 13.2608 126.989 13.3407 127.11 13.4161C127.489 13.6531 127.937 13.846 128.455 13.9954C128.66 14.0547 128.877 14.1071 129.104 14.1527C129.168 14.1655 129.232 14.1778 129.298 14.1895C129.315 14.1927 129.333 14.1958 129.351 14.1989C129.353 14.1993 129.355 14.1996 129.357 14.2L131.373 14.56C131.535 14.5877 131.687 14.6222 131.829 14.6631C132.063 14.7306 132.27 14.8156 132.45 14.9161C132.477 14.9313 132.503 14.9469 132.529 14.9628C133.037 15.2747 133.299 15.7207 133.299 16.252C133.299 17.1312 132.693 17.7398 131.557 17.969C131.319 18.0171 131.057 18.0485 130.773 18.0621C130.765 18.0625 130.756 18.0629 130.748 18.0633C130.744 18.0634 130.741 18.0636 130.738 18.0637C130.713 18.0648 130.688 18.0657 130.663 18.0665C130.589 18.0688 130.514 18.07 130.437 18.07C129.791 18.07 129.221 17.9699 128.739 17.7804C128.732 17.7778 128.726 17.7751 128.719 17.7725C128.714 17.7703 128.708 17.768 128.702 17.7657C128.7 17.7647 128.698 17.7637 128.695 17.7628C128.639 17.7396 128.583 17.7152 128.529 17.6895C128.349 17.6042 128.184 17.5051 128.032 17.3929C127.636 17.0986 127.341 16.7143 127.159 16.252C127.149 16.2259 127.139 16.1995 127.13 16.173C127.123 16.1528 127.116 16.1326 127.109 16.1122C127.036 15.8909 126.987 15.6531 126.964 15.4C126.964 15.3979 126.964 15.3957 126.964 15.3936C126.964 15.3917 126.963 15.3899 126.963 15.388L124.911 15.568C124.912 15.5782 124.913 15.5884 124.914 15.5986C124.973 16.2534 125.144 16.8538 125.411 17.3883C125.449 17.4648 125.49 17.54 125.532 17.6137C125.702 17.912 125.905 18.1878 126.136 18.4387C126.209 18.5178 126.285 18.5944 126.363 18.6685C126.541 18.8357 126.732 18.9899 126.937 19.1304C127.028 19.1927 127.121 19.2523 127.217 19.3091C127.248 19.3277 127.28 19.3461 127.312 19.3642C127.634 19.5456 127.982 19.6968 128.355 19.8152C128.365 19.8185 128.376 19.8218 128.386 19.8251C128.993 20.0142 129.662 20.1166 130.38 20.1218C130.393 20.1219 130.407 20.122 130.42 20.122C130.426 20.122 130.431 20.122 130.437 20.122C130.925 20.122 131.385 20.0812 131.814 20.0026C133.105 19.7655 134.108 19.1844 134.711 18.3402C135.126 17.7597 135.351 17.0549 135.351 16.252C135.351 15.0782 134.803 14.0848 133.861 13.4057C133.786 13.3517 133.709 13.2996 133.629 13.2496C133.553 13.2024 133.476 13.157 133.396 13.1135C133.308 13.0657 133.218 13.0202 133.126 12.9771C132.769 12.8105 132.376 12.6791 131.951 12.5872C131.879 12.5717 131.807 12.5573 131.733 12.544L131.734 12.5419L131.905 11.5831L131.925 11.5811C132.04 11.6529 132.158 11.7346 132.278 11.8279C132.293 11.8396 132.308 11.8514 132.323 11.8632C132.283 11.9654 132.238 12.0683 132.188 12.1713M135.045 11.284C135.045 11.2837 135.045 11.2833 135.045 11.283C135.045 11.2797 135.045 11.2765 135.044 11.2732C134.975 10.5643 134.786 9.92794 134.492 9.37631C134.126 8.68903 133.598 8.13325 132.937 7.7325C132.844 7.67651 132.749 7.62354 132.652 7.57367C132.645 7.57017 132.638 7.56668 132.631 7.56321C132.629 7.56185 132.626 7.56051 132.623 7.55916C132.048 7.26958 131.386 7.08695 130.655 7.02431C130.65 7.02384 130.644 7.02337 130.639 7.02291C130.596 7.01931 130.552 7.01614 130.508 7.01338C130.367 7.00449 130.223 7 130.077 7C129.46 7 128.888 7.07446 128.374 7.21523" fill="#DFDFDF"/>
<path d="M7 19.4883H12.616C16.36 19.4883 18.484 17.2023 18.484 13.1703C18.466 9.15628 16.342 6.88828 12.58 6.88828H7V19.4883ZM9.196 17.2923V9.08428H12.58C15.1 9.08428 16.27 10.3443 16.288 13.1703C16.288 15.9963 15.118 17.2923 12.616 17.2923H9.196ZM18.1241 19.4883H20.3021L21.9761 14.6643H26.0981L27.8981 19.4883H30.0581L25.4141 6.88828H22.5341L18.1241 19.4883ZM22.6961 12.6123L23.9741 8.94028L25.3421 12.6123H22.6961ZM30.4155 19.4883H32.4675V13.8363H33.9615L38.2095 19.4883H40.8915L36.5715 13.8363C38.7495 13.7823 40.2255 12.3963 40.2255 10.3263C40.2255 8.23828 38.7135 6.88828 36.4275 6.88828H30.4155V19.4883ZM32.4675 11.7843V8.94028H36.4275C37.6155 8.94028 38.1735 9.42628 38.1735 10.3263C38.1735 11.2623 37.5975 11.7843 36.4275 11.7843H32.4675ZM41.7892 19.4883H43.8412V17.8683L46.4512 14.3043L50.2492 19.4883H52.8052L47.7292 12.5583L51.8512 6.88828H49.3132L43.8412 14.3763V6.88828H41.7892V19.4883ZM58.5602 19.4883H60.6122V9.82228L63.8522 19.4883H66.3902L69.8282 9.76828V19.4883H71.8802V6.88828H68.6222L65.1482 16.4463L61.8722 6.88828H58.5602V19.4883ZM72.4265 19.4883H74.6045L76.2785 14.6643H80.4005L82.2005 19.4883H84.3605L79.7165 6.88828H76.8365L72.4265 19.4883ZM76.9985 12.6123L78.2765 8.94028L79.6445 12.6123H76.9985ZM86.7462 19.4703H88.7982V8.94028H92.9022V6.88828H82.6422V8.94028H86.7462V19.4703ZM96.7313 19.4703H98.7833V8.94028H102.887V6.88828H92.6273V8.94028H96.7313V19.4703ZM103.51 19.4883H112.906V17.4363H105.562V13.8903H112.366V11.8383H105.562V8.94028H112.762V6.88828H103.51V19.4883ZM114.339 19.4883H116.391V13.8363H117.885L122.133 19.4883H124.815L120.495 13.8363C122.673 13.7823 124.149 12.3963 124.149 10.3263C124.149 8.23828 122.637 6.88828 120.351 6.88828H114.339V19.4883ZM116.391 11.7843V8.94028H120.351C121.539 8.94028 122.097 9.42628 122.097 10.3263C122.097 11.2623 121.521 11.7843 120.351 11.7843H116.391ZM130.437 19.7583C133.407 19.7583 135.351 18.2463 135.351 15.8883C135.351 13.9983 133.929 12.5763 131.733 12.1803L129.717 11.8203C128.133 11.5323 127.629 11.0823 127.629 10.1823C127.629 9.28228 128.511 8.59828 130.077 8.59828C131.823 8.59828 132.849 9.55228 132.993 11.1003L135.045 10.9203C134.793 8.27428 132.867 6.63628 130.077 6.63628C127.395 6.63628 125.577 8.04028 125.577 10.1823C125.577 12.1983 126.855 13.4043 129.357 13.8363L131.373 14.1963C132.633 14.4123 133.299 15.0423 133.299 15.8883C133.299 17.0223 132.291 17.7063 130.437 17.7063C128.385 17.7063 127.107 16.6983 126.963 15.0243L124.911 15.2043C125.145 17.9583 127.341 19.7583 130.437 19.7583Z" fill="#0D0D1A"/>
</svg>
