<svg width="68" height="27" viewBox="0 0 68 27" fill="none" xmlns="http://www.w3.org/2000/svg">
<path d="M7 19.6H16.396V17.548H9.052V14.002H15.856V11.95H9.052V9.052H16.252V7H7V19.6Z" fill="#0D0D1A"/>
<path d="M16.9288 19.6H19.1068L20.7808 14.776H24.9028L26.7028 19.6H28.8628L24.2188 7H21.3388L16.9288 19.6ZM21.5008 12.724L22.7788 9.052L24.1468 12.724H21.5008Z" fill="#0D0D1A"/>
<path d="M29.2202 19.6H31.2722V13.948H32.7662L37.0142 19.6H39.6962L35.3762 13.948C37.5542 13.894 39.0302 12.508 39.0302 10.438C39.0302 8.35 37.5182 7 35.2322 7H29.2202V19.6ZM31.2722 11.896V9.052H35.2322C36.4202 9.052 36.9782 9.538 36.9782 10.438C36.9782 11.374 36.4022 11.896 35.2322 11.896H31.2722Z" fill="#0D0D1A"/>
<path d="M43.343 19.582H45.395V9.052H49.499V7H39.239V9.052H43.343V19.582Z" fill="#0D0D1A"/>
<path d="M50.122 19.6H52.174V13.714H58.582V19.6H60.634V7H58.582V11.662H52.174V7H50.122V19.6Z" fill="#0D0D1A"/>
<path fill-rule="evenodd" clip-rule="evenodd" d="M7 26.6C3.13401 26.6 0 23.466 0 19.6V7C0 3.13401 3.13401 0 7 0H16.252C17.15 0 18.0086 0.169111 18.7975 0.477226C19.5919 0.167519 20.4509 0 21.3388 0H24.2188C25.0905 0 25.9346 0.161489 26.7173 0.460724C27.4945 0.163078 28.3383 0 29.2202 0H35.2322C35.9786 0 36.7467 0.0669384 37.5155 0.213767C38.0668 0.0741711 38.6442 0 39.239 0H49.499C49.6034 0 49.7072 0.00228453 49.8105 0.00680637C49.9137 0.00228453 50.0176 0 50.122 0H52.174C53.3286 0 54.4179 0.279549 55.378 0.774657C56.338 0.279549 57.4273 0 58.582 0H60.634C64.4999 0 67.634 3.13401 67.634 7V19.6C67.634 23.466 64.4999 26.6 60.634 26.6H58.582C57.4273 26.6 56.338 26.3205 55.378 25.8253C54.4179 26.3205 53.3286 26.6 52.174 26.6H50.122C49.2831 26.6 48.4787 26.4525 47.7334 26.1819C47.0021 26.441 46.215 26.582 45.395 26.582H43.343C42.7232 26.582 42.1223 26.5015 41.5501 26.3503C40.9545 26.5139 40.3319 26.6 39.6962 26.6H37.0142C36.0117 26.6 35.0358 26.3852 34.1453 25.9851C33.2687 26.3802 32.2961 26.6 31.2722 26.6H29.2202C29.1602 26.6 29.1004 26.5992 29.0407 26.5977C28.9815 26.5992 28.9222 26.6 28.8628 26.6H26.7028C25.3232 26.6 24.0121 26.1954 22.9048 25.4801C21.7984 26.1949 20.4877 26.6 19.1068 26.6H16.9288C16.8402 26.6 16.7517 26.5983 16.6635 26.595C16.5748 26.5983 16.4856 26.6 16.396 26.6H7ZM26.7028 19.6H28.8628L24.2188 7H21.3388L16.9288 19.6H19.1068L20.7808 14.776H24.9028L26.7028 19.6ZM21.5008 12.724H24.1468L22.7788 9.052L21.5008 12.724ZM16.252 9.052V7H7V19.6H16.396V17.548H9.052V14.002H15.856V11.95H9.052V9.052H16.252ZM29.2202 7V19.6H31.2722V13.948H32.7662L37.0142 19.6H39.6962L35.3762 13.948C35.671 13.9407 35.953 13.909 36.2202 13.8545C36.2615 13.846 36.3024 13.8371 36.343 13.8275C36.5794 13.7721 36.8036 13.6985 37.0142 13.6077C37.5506 13.3764 37.9985 13.034 38.3349 12.6C38.3553 12.5736 38.3754 12.5469 38.395 12.5199C38.6673 12.1442 38.8592 11.7042 38.9566 11.2114C38.9937 11.0237 39.0171 10.8283 39.026 10.626C39.0288 10.564 39.0302 10.5013 39.0302 10.438C39.0302 9.92923 38.9404 9.46428 38.7715 9.052C38.6787 8.82531 38.5619 8.61455 38.423 8.42118C37.9357 7.74272 37.1759 7.2784 36.2202 7.09178C35.9105 7.03131 35.5803 7 35.2322 7H29.2202ZM31.2722 11.896H35.2322C35.2636 11.896 35.2947 11.8956 35.3253 11.8949C35.3889 11.8933 35.4506 11.8901 35.5106 11.8853C35.7862 11.8633 36.0226 11.8073 36.2202 11.7193C36.2629 11.7002 36.3039 11.6796 36.343 11.6576C36.6689 11.4739 36.8686 11.1871 36.9439 10.808C36.9668 10.6931 36.9782 10.5696 36.9782 10.438C36.9782 9.89073 36.7718 9.49654 36.343 9.27162C36.3039 9.25111 36.263 9.23202 36.2202 9.21434C35.9652 9.10906 35.6443 9.0541 35.2548 9.05206C35.2473 9.05202 35.2397 9.052 35.2322 9.052H31.2722V11.896ZM39.239 7V9.052H43.343V19.582H45.395V9.052H49.499V7H39.239ZM50.122 19.6H52.174V13.714H58.582V19.6H60.634V7H58.582V11.662H52.174V7H50.122V19.6Z" fill="#7CD1FF"/>
</svg>
