<svg width="126" height="26" viewBox="0 0 126 26" fill="none" xmlns="http://www.w3.org/2000/svg">
<path d="M3.06543 3.48828H121.065V22.4883H3.06543V3.48828Z" fill="#FFD4F3"/>
<path d="M6 18.852H15.396V16.8H8.052V13.254H14.856V11.202H8.052V8.304H15.252V6.252H6V18.852Z" fill="#0D0D1A"/>
<path d="M16.3809 18.852H18.9009L21.9429 14.406L24.9849 18.852H27.5049L23.2029 12.57L27.5229 6.252H25.0209L21.9429 10.734L18.8829 6.252H16.3809L20.6829 12.57L16.3809 18.852Z" fill="#0D0D1A"/>
<path d="M28.6069 18.852H30.6589V13.578H34.3129C36.8689 13.578 38.4529 12.156 38.4529 9.852C38.4529 7.602 36.8689 6.252 34.3129 6.252H28.6069V18.852ZM30.6589 11.526V8.304H34.3129C35.7889 8.304 36.4009 8.808 36.4009 9.852C36.4009 10.986 35.7529 11.526 34.3129 11.526H30.6589Z" fill="#0D0D1A"/>
<path d="M39.4533 18.852H48.2373V16.8H41.5053V6.252H39.4533V18.852Z" fill="#0D0D1A"/>
<path d="M54.5145 19.104C58.3125 19.104 60.7245 16.548 60.7245 12.534C60.7065 8.538 58.3305 6.018 54.5145 6C50.7705 6 48.3225 8.574 48.3225 12.534C48.3045 16.53 50.6985 19.086 54.5145 19.104ZM54.5145 17.052C51.8505 17.034 50.3565 15.414 50.3745 12.534C50.3745 9.69 51.9045 8.052 54.5145 8.052C57.1785 8.07 58.6545 9.654 58.6725 12.534C58.6725 15.432 57.1605 17.052 54.5145 17.052Z" fill="#0D0D1A"/>
<path d="M61.7965 18.852H63.8485V13.2H65.3425L69.5905 18.852H72.2725L67.9525 13.2C70.1305 13.146 71.6065 11.76 71.6065 9.69C71.6065 7.602 70.0945 6.252 67.8085 6.252H61.7965V18.852ZM63.8485 11.148V8.304H67.8085C68.9965 8.304 69.5545 8.79 69.5545 9.69C69.5545 10.626 68.9785 11.148 67.8085 11.148H63.8485Z" fill="#0D0D1A"/>
<path d="M72.0945 18.852H74.2725L75.9464 14.028H80.0685L81.8685 18.852H84.0285L79.3845 6.252H76.5045L72.0945 18.852ZM76.6665 11.976L77.9445 8.304L79.3125 11.976H76.6665Z" fill="#0D0D1A"/>
<path d="M86.4142 18.834H88.4662V8.304H92.5702V6.252H82.3102V8.304H86.4142V18.834Z" fill="#0D0D1A"/>
<path d="M92.9295 18.852H94.9815V6.252H92.9295V18.852Z" fill="#0D0D1A"/>
<path d="M101.997 19.104C105.795 19.104 108.207 16.548 108.207 12.534C108.189 8.538 105.813 6.018 101.997 6C98.2525 6 95.8045 8.574 95.8045 12.534C95.7865 16.53 98.1805 19.086 101.997 19.104ZM101.997 17.052C99.3325 17.034 97.8385 15.414 97.8565 12.534C97.8565 9.69 99.3865 8.052 101.997 8.052C104.661 8.07 106.137 9.654 106.155 12.534C106.155 15.432 104.643 17.052 101.997 17.052Z" fill="#0D0D1A"/>
<path d="M109.279 18.87H111.331V8.808L117.055 18.852H119.989V6.252H117.937V16.224L112.249 6.252H109.279V18.87Z" fill="#0D0D1A"/>
<path fill-rule="evenodd" clip-rule="evenodd" d="M6 24.852C2.68629 24.852 0 22.1657 0 18.852V6.252C0 2.93829 2.68629 0.252 6 0.252H15.252C15.443 0.252 15.6318 0.26092 15.8182 0.278367C16.0041 0.26089 16.1919 0.252 16.3809 0.252H18.8829C19.9794 0.252 21.0367 0.551555 21.9519 1.09629C22.8672 0.551509 23.9246 0.252 25.0209 0.252H27.5229C27.7044 0.252 27.8846 0.260189 28.0632 0.276299C28.2423 0.260216 28.4236 0.252 28.6069 0.252H34.3129C35.2901 0.252 36.3215 0.362959 37.3461 0.632455C38.0017 0.386507 38.7118 0.252 39.4533 0.252H41.5053C43.5689 0.252 45.3893 1.29385 46.469 2.88025C48.7223 0.926325 51.5786 0 54.5145 0L54.5428 6.65188e-05C56.1359 0.007581 57.7155 0.278782 59.1917 0.845391C59.9795 0.465135 60.8631 0.252 61.7965 0.252H67.8085C69.4797 0.252 71.2453 0.615309 72.8459 1.49648C73.8713 0.707754 75.1485 0.252 76.5045 0.252H79.3845C79.8848 0.252 80.3746 0.314085 80.8451 0.432144C81.314 0.314482 81.8048 0.252 82.3102 0.252H92.5702C92.6302 0.252 92.6901 0.252883 92.7498 0.254638C92.8095 0.252883 92.8694 0.252 92.9295 0.252H94.9815C95.8721 0.252 96.7174 0.446061 97.4774 0.794206C98.9097 0.259723 100.442 0 101.997 0L102.025 6.65188e-05C103.618 0.007581 105.198 0.278782 106.674 0.845392C107.462 0.465135 108.345 0.252 109.279 0.252H112.249C113.258 0.252 114.232 0.505802 115.091 0.968189C115.938 0.511313 116.907 0.252 117.937 0.252H119.989C123.302 0.252 125.989 2.93829 125.989 6.252V18.852C125.989 22.1657 123.302 24.852 119.989 24.852H117.055C116.044 24.852 115.07 24.5979 114.21 24.135C113.355 24.6036 112.374 24.87 111.331 24.87H109.279C108.338 24.87 107.448 24.6537 106.656 24.268C105.179 24.8339 103.596 25.104 101.997 25.104L101.968 25.1039C100.428 25.0967 98.9025 24.8409 97.4727 24.312C96.7139 24.6588 95.8702 24.852 94.9815 24.852H92.9295C92.1322 24.852 91.3713 24.6965 90.6754 24.4142C89.9916 24.6851 89.2463 24.834 88.4662 24.834H86.4142C86.0204 24.834 85.6356 24.7961 85.2631 24.7237C84.861 24.8082 84.4476 24.852 84.0285 24.852H81.8685C80.4516 24.852 79.1191 24.3542 78.0704 23.497C77.0227 24.3534 75.6908 24.852 74.2725 24.852H69.5905C68.5742 24.852 67.5898 24.5945 66.7207 24.1212C65.8676 24.5871 64.889 24.852 63.8485 24.852H61.7965C60.8643 24.852 59.9817 24.6394 59.1947 24.2601C57.7119 24.8314 56.1219 25.104 54.5145 25.104L54.4862 25.1039C53.0894 25.0973 51.7053 24.8865 50.3934 24.4529C49.7242 24.7107 48.9973 24.852 48.2373 24.852H39.4533C37.7163 24.852 36.1517 24.1139 35.0561 22.9343C33.9604 24.1139 32.3958 24.852 30.6589 24.852H28.6069C28.4205 24.852 28.2362 24.8435 28.0542 24.8269C27.8727 24.8435 27.6894 24.852 27.5049 24.852H24.9849C23.8993 24.852 22.8519 24.5583 21.9429 24.0237C21.0339 24.5583 19.9866 24.852 18.9009 24.852H16.3809C16.2162 24.852 16.0525 24.8453 15.89 24.832C15.7271 24.8452 15.5624 24.852 15.396 24.852H6ZM18.9009 18.852L21.9429 14.406L24.9849 18.852H27.5049L23.2029 12.57L27.5229 6.252H25.0209L21.9429 10.734L18.8829 6.252H16.3809L20.6829 12.57L16.3809 18.852H18.9009ZM15.252 8.304V6.252H6V18.852H15.396V16.8H8.052V13.254H14.856V11.202H8.052V8.304H15.252ZM28.6069 6.252V18.852H30.6589V13.578H34.3129C34.4124 13.578 34.5104 13.5758 34.6069 13.5716C34.9229 13.5576 35.2228 13.5208 35.5053 13.4624C37.3522 13.0803 38.4529 11.7726 38.4529 9.852C38.4529 7.97641 37.3522 6.72621 35.5053 6.36207C35.2228 6.30638 34.9229 6.27142 34.6069 6.25811C34.5104 6.25405 34.4124 6.252 34.3129 6.252H28.6069ZM30.6589 8.304V11.526H34.3129C34.4148 11.526 34.5128 11.5233 34.6069 11.5179C34.961 11.4974 35.2595 11.4383 35.5053 11.3396C36.1163 11.0941 36.4009 10.6035 36.4009 9.852C36.4009 9.15416 36.1274 8.69759 35.5053 8.47154C35.2611 8.3828 34.9631 8.32959 34.6069 8.31125C34.513 8.30641 34.415 8.304 34.3129 8.304H30.6589ZM39.4533 6.252V18.852H48.2373V16.8H41.5053V6.252H39.4533ZM48.4929 10.8053C48.3815 11.3419 48.3233 11.9153 48.3225 12.5212C48.3225 12.5254 48.3225 12.5297 48.3225 12.534C48.3148 14.2508 48.7523 15.7019 49.5565 16.8C50.2858 17.7959 51.3167 18.5015 52.5906 18.852C53.1002 18.9922 53.6487 19.0756 54.2323 19.098C54.321 19.1014 54.4104 19.1034 54.5006 19.1039C54.5053 19.104 54.5099 19.104 54.5145 19.104C54.9622 19.104 55.3907 19.0685 55.7983 18.9992C56.0258 18.9606 56.2469 18.9114 56.4611 18.852C56.9621 18.7131 57.4258 18.5184 57.8485 18.2719C58.8185 17.7061 59.5721 16.8674 60.0642 15.8043C60.4157 15.0449 60.6336 14.1709 60.7016 13.2C60.7168 12.9828 60.7245 12.7607 60.7245 12.534C60.7245 12.5297 60.7245 12.5254 60.7244 12.5212C60.7217 12.0415 60.6849 11.5832 60.6157 11.148C60.4738 10.2553 60.1954 9.45978 59.7945 8.77673C59.6981 8.61259 59.5947 8.45494 59.4843 8.304C59.0809 7.75216 58.5854 7.29 58.007 6.92794C57.5399 6.6355 57.0187 6.40836 56.4484 6.252C56.2383 6.19438 56.0214 6.14638 55.7982 6.10826C55.3953 6.03947 54.9716 6.00287 54.5284 6.00008C54.5237 6.00005 54.5191 6.00002 54.5145 6C51.3478 6 49.1083 7.84139 48.4929 10.8053ZM54.5145 8.052C54.5113 8.052 54.508 8.052 54.5048 8.05201C52.3264 8.05539 50.9023 9.20178 50.4949 11.2392C50.4153 11.6374 50.3745 12.0696 50.3745 12.534C50.3745 12.5371 50.3745 12.5402 50.3744 12.5432C50.363 14.7695 51.2565 16.2412 52.8966 16.8C53.2993 16.9372 53.7469 17.0194 54.2373 17.0441C54.3282 17.0487 54.4206 17.0514 54.5145 17.052C54.5177 17.052 54.521 17.052 54.5242 17.052C54.9831 17.0513 55.4079 17.0018 55.7965 16.9052C56.6715 16.6878 57.363 16.2318 57.8485 15.5578C58.1699 15.1115 58.401 14.5696 58.5352 13.938C58.5849 13.7042 58.6213 13.4581 58.6441 13.2C58.6627 12.989 58.6722 12.7701 58.6725 12.5432C58.6725 12.5402 58.6725 12.5371 58.6725 12.534C58.6694 12.0322 58.622 11.5697 58.5317 11.148C58.4963 10.9827 58.4544 10.8237 58.4059 10.671C58.2704 10.2437 58.0839 9.86622 57.8485 9.54033C57.3653 8.87153 56.6759 8.42011 55.7965 8.20239C55.4061 8.10574 54.9783 8.05513 54.5145 8.052ZM54.5412 13.1039L54.5449 12.5601L54.7244 12.5587C54.7244 12.5595 54.7244 12.5604 54.7244 12.5612C54.7228 12.8053 54.6989 12.9811 54.6742 13.0982C54.636 13.1012 54.5918 13.1033 54.5412 13.1039ZM54.7243 12.534H54.545L54.5486 12.001C54.5964 12.0023 54.6385 12.005 54.6754 12.0083C54.6991 12.1251 54.7217 12.2973 54.7243 12.534ZM54.4842 12.534L54.4878 12.0002C54.4438 12.0007 54.4053 12.0026 54.3719 12.0052C54.3472 12.1165 54.3225 12.2892 54.3225 12.534H54.4842ZM54.3224 12.5612C54.3214 12.8033 54.3426 12.9787 54.3656 13.0964C54.3992 13.0994 54.4374 13.1017 54.4804 13.103L54.484 12.5602L54.3224 12.5612ZM61.7965 6.252V18.852H63.8485V13.2H65.3425L69.5905 18.852H74.2725L75.9464 14.028H80.0685L81.8685 18.852H84.0285L79.3845 6.252H76.5045L72.1504 18.6922L67.9525 13.2C68.5584 13.185 69.1099 13.0669 69.5905 12.8597C69.5964 12.8571 69.6022 12.8546 69.6081 12.852C69.7791 12.7772 69.9409 12.6911 70.093 12.5943C70.2843 12.4725 70.4601 12.3337 70.6188 12.1792C70.6355 12.163 70.6521 12.1465 70.6684 12.1299C70.9404 11.8531 71.1594 11.5285 71.3171 11.1629C71.4116 10.9439 71.4841 10.7103 71.5329 10.4634C71.5497 10.3784 71.5637 10.2919 71.5748 10.2039C71.5878 10.1011 71.5968 9.99633 71.6018 9.88955C71.6049 9.82377 71.6065 9.75725 71.6065 9.69C71.6065 9.32113 71.5593 8.97529 71.469 8.65586C71.2349 7.82796 70.7112 7.17745 69.9687 6.76307C69.376 6.43231 68.6439 6.252 67.8085 6.252H61.7965ZM67.8085 11.148C67.8399 11.148 67.871 11.1476 67.9016 11.1469C67.9652 11.1453 68.027 11.1421 68.0869 11.1373C68.2193 11.1267 68.3426 11.1083 68.457 11.0823C69.0615 10.9446 69.4142 10.5938 69.5203 10.06C69.5431 9.94507 69.5545 9.82163 69.5545 9.69C69.5545 9.31593 69.4581 9.01339 69.2601 8.78752C68.9848 8.47342 68.5131 8.30763 67.8311 8.30406C67.8236 8.30402 67.8161 8.304 67.8085 8.304H63.8485V11.148H67.8085ZM82.3102 6.252V8.304H86.4142V18.834H88.4662V8.304H92.5702V6.252H82.3102ZM92.9295 18.852H94.9815V6.252H92.9295V18.852ZM98.5702 6.90788C97.9807 7.2737 97.4731 7.74326 97.0596 8.304C96.2551 9.39521 95.8068 10.8318 95.8045 12.5212C95.8045 12.5254 95.8045 12.5297 95.8045 12.534C95.8033 12.8093 95.8135 13.0777 95.8348 13.3389C96.0287 15.7132 97.1412 17.4935 98.9295 18.4102C99.2845 18.5922 99.6662 18.7402 100.073 18.852C100.362 18.9317 100.665 18.993 100.979 19.0352C101.301 19.0786 101.636 19.1017 101.983 19.1039C101.987 19.104 101.992 19.104 101.997 19.104C102.444 19.104 102.872 19.0685 103.28 18.9993C103.484 18.9646 103.683 18.9214 103.877 18.87C104.403 18.7301 104.889 18.5292 105.331 18.2719C106.565 17.552 107.449 16.3905 107.889 14.8871C108.097 14.1757 108.207 13.3878 108.207 12.534C108.207 12.5297 108.206 12.5254 108.206 12.5212C108.203 12.0088 108.162 11.5208 108.083 11.0592C108.062 10.9371 108.039 10.8169 108.013 10.6986C107.878 10.0838 107.675 9.52004 107.408 9.01304C107.371 8.94363 107.334 8.87528 107.295 8.808C106.868 8.07104 106.3 7.46346 105.607 7.00425C105.111 6.67479 104.549 6.42171 103.93 6.252C103.72 6.19438 103.503 6.14638 103.28 6.10826C102.877 6.03947 102.454 6.00287 102.01 6.00008C102.006 6.00005 102.001 6.00002 101.997 6C101.646 6 101.306 6.02262 100.979 6.06689C100.666 6.10915 100.365 6.17114 100.076 6.252C99.6691 6.36578 99.2862 6.51694 98.9295 6.70309C98.8065 6.76723 98.6867 6.83553 98.5702 6.90788ZM98.9295 9.24644C98.2324 10.0109 97.8565 11.1243 97.8565 12.534C97.8565 12.5371 97.8565 12.5402 97.8565 12.5432C97.8491 13.9847 98.2211 15.1099 98.9295 15.8757C99.4425 16.4303 100.132 16.7964 100.981 16.9578C101.298 17.0179 101.637 17.0496 101.997 17.052C102 17.052 102.003 17.052 102.006 17.052C102.465 17.0513 102.89 17.0018 103.279 16.9052C104.154 16.6878 104.845 16.2318 105.331 15.5578C105.868 14.8112 106.153 13.7971 106.155 12.5432C106.155 12.5402 106.155 12.5371 106.155 12.534C106.147 11.285 105.865 10.2798 105.331 9.54034C104.847 8.87153 104.158 8.42012 103.279 8.20239C102.888 8.10574 102.46 8.05513 101.997 8.052C101.993 8.052 101.99 8.052 101.987 8.05201C101.631 8.05256 101.296 8.08357 100.981 8.14395C100.136 8.30628 99.4451 8.68088 98.9295 9.24644ZM102.206 12.534C102.204 12.2973 102.181 12.1251 102.157 12.0083C102.121 12.005 102.078 12.0023 102.031 12.001L102.027 12.534H102.206ZM102.027 12.5601L102.023 13.1039C102.074 13.1033 102.118 13.1012 102.156 13.0982C102.181 12.9811 102.205 12.8053 102.206 12.5612C102.206 12.5604 102.206 12.5595 102.206 12.5587L102.027 12.5601ZM101.966 12.5602L101.962 13.103C101.919 13.1017 101.881 13.0994 101.848 13.0964C101.825 12.9787 101.803 12.8033 101.804 12.5612L101.966 12.5602ZM101.966 12.534L101.97 12.0002C101.926 12.0007 101.887 12.0026 101.854 12.0052C101.829 12.1165 101.805 12.2892 101.805 12.534H101.966ZM109.279 6.252V18.87H111.331V8.808L117.055 18.852H119.989V6.252H117.937V16.224L112.249 6.252H109.279ZM76.6665 11.976L77.9445 8.304L79.3125 11.976H76.6665Z" fill="#FFD4F3"/>
</svg>
