<svg width="75" height="28" viewBox="0 0 75 28" fill="none" xmlns="http://www.w3.org/2000/svg">
<path d="M7 19.852H15.784V17.8H9.052V7.252H7V19.852Z" fill="#0D0D1A"/>
<path d="M15.962 19.852H18.14L19.814 15.028H23.936L25.736 19.852H27.896L23.252 7.252H20.372L15.962 19.852ZM20.534 12.976L21.812 9.304L23.18 12.976H20.534Z" fill="#0D0D1A"/>
<path d="M30.2817 19.834H32.3337V9.304H36.4377V7.252H26.1777V9.304H30.2817V19.834Z" fill="#0D0D1A"/>
<path d="M37.0607 19.852H46.4567V17.8H39.1127V14.254H45.9167V12.202H39.1127V9.304H46.3127V7.252H37.0607V19.852Z" fill="#0D0D1A"/>
<path d="M52.7019 20.122C55.6719 20.122 57.6159 18.61 57.6159 16.252C57.6159 14.362 56.1939 12.94 53.9979 12.544L51.9819 12.184C50.3979 11.896 49.8939 11.446 49.8939 10.546C49.8939 9.646 50.7759 8.962 52.3419 8.962C54.0879 8.962 55.1139 9.916 55.2579 11.464L57.3099 11.284C57.0579 8.638 55.1319 7 52.3419 7C49.6599 7 47.8419 8.404 47.8419 10.546C47.8419 12.562 49.1199 13.768 51.6219 14.2L53.6379 14.56C54.8979 14.776 55.5639 15.406 55.5639 16.252C55.5639 17.386 54.5559 18.07 52.7019 18.07C50.6499 18.07 49.3719 17.062 49.2279 15.388L47.1759 15.568C47.4099 18.322 49.6059 20.122 52.7019 20.122Z" fill="#0D0D1A"/>
<path d="M61.4499 19.834H63.5019V9.304H67.6059V7.252H57.3459V9.304H61.4499V19.834Z" fill="#0D0D1A"/>
<path fill-rule="evenodd" clip-rule="evenodd" d="M7 26.852C3.13401 26.852 0 23.718 0 19.852V7.252C0 3.38601 3.13401 0.252 7 0.252H9.052C11.3781 0.252 13.4391 1.38655 14.712 3.13245C16.0061 1.35476 18.0938 0.252 20.372 0.252H23.252C23.7499 0.252 24.2388 0.304682 24.7124 0.405624C25.1849 0.304967 25.6751 0.252 26.1777 0.252H36.4377C36.5421 0.252 36.646 0.254284 36.7492 0.258806C36.8525 0.254284 36.9563 0.252 37.0607 0.252H46.3127C47.0448 0.252 47.7507 0.364401 48.4141 0.572889C49.7299 0.168384 51.0714 0 52.3419 0C53.4703 0 54.6183 0.1376 55.741 0.436826C56.2564 0.315942 56.7937 0.252 57.3459 0.252H67.6059C71.4719 0.252 74.6059 3.38601 74.6059 7.252V9.304C74.6059 12.1371 72.9227 14.5772 70.5019 15.6787V19.834C70.5019 23.7 67.3679 26.834 63.5019 26.834H61.4499C60.2678 26.834 59.1542 26.541 58.1777 26.0237C56.3807 26.8168 54.4733 27.122 52.7019 27.122C51.33 27.122 49.94 26.9308 48.5999 26.5178C47.9244 26.7348 47.2043 26.852 46.4567 26.852H37.0607C36.2219 26.852 35.4175 26.7045 34.6721 26.4339C33.9409 26.693 33.1538 26.834 32.3337 26.834H30.2817C29.8923 26.834 29.5102 26.8022 29.1381 26.741C28.7318 26.8143 28.3163 26.852 27.896 26.852H25.736C24.3564 26.852 23.0453 26.4474 21.938 25.7321C20.8316 26.4469 19.5209 26.852 18.14 26.852H15.962C15.9325 26.852 15.9029 26.8518 15.8734 26.8514C15.8437 26.8518 15.8138 26.852 15.784 26.852H7ZM15.784 19.852V17.8H9.052V7.252H7V19.852H15.784ZM19.814 15.028H23.936L25.736 19.852H27.896L23.252 7.252H20.372L15.962 19.852H18.14L19.814 15.028ZM23.18 12.976L21.812 9.304L20.534 12.976H23.18ZM26.1777 9.304H30.2817V19.834H32.3337V9.304H36.4377V7.252H26.1777V9.304ZM37.0607 19.852H46.4567V17.8H39.1127V14.254H45.9167V12.202H39.1127V9.304H46.3127V7.252H37.0607V19.852ZM50.3459 7.30441C49.631 7.546 49.0425 7.92446 48.616 8.41479C48.3854 8.67983 48.2023 8.97755 48.0721 9.304C47.9215 9.68159 47.8419 10.0976 47.8419 10.546C47.8419 10.6811 47.8476 10.8126 47.8591 10.9405C47.9012 11.4097 48.0203 11.83 48.2158 12.202C48.2478 12.263 48.2819 12.3227 48.3181 12.3811C48.3213 12.3862 48.3244 12.3913 48.3276 12.3964C48.5113 12.6891 48.7469 12.9491 49.0339 13.1765C49.1403 13.2608 49.2538 13.3407 49.3744 13.4161C49.9025 13.7464 50.5659 13.9912 51.3626 14.1516C51.3645 14.152 51.3664 14.1523 51.3683 14.1527C51.4494 14.169 51.5317 14.1844 51.6155 14.1989C51.6176 14.1993 51.6197 14.1996 51.6219 14.2L53.6379 14.56C53.7994 14.5877 53.9512 14.6222 54.0931 14.6631C54.22 14.6997 54.339 14.7414 54.4499 14.7878C54.5437 14.8272 54.6319 14.87 54.7141 14.9161C54.7413 14.9313 54.7679 14.9469 54.7938 14.9628C55.2429 15.2388 55.5003 15.6201 55.5535 16.0724C55.5604 16.1311 55.5639 16.191 55.5639 16.252C55.5639 16.9519 55.1798 17.4805 54.4499 17.7825C54.1692 17.8986 53.8374 17.9813 53.4567 18.0273C53.323 18.0435 53.1832 18.0551 53.0375 18.0621C53.0291 18.0625 53.0207 18.0629 53.0123 18.0633C53.009 18.0634 53.0058 18.0636 53.0025 18.0637C52.9777 18.0648 52.9527 18.0657 52.9276 18.0665C52.8538 18.0688 52.7785 18.07 52.7019 18.07C52.3931 18.07 52.1019 18.0472 51.8294 18.0027C51.5512 17.9573 51.2925 17.8893 51.0548 17.8C51.0376 17.7936 51.0206 17.787 51.0037 17.7804C50.9971 17.7778 50.9905 17.7751 50.9839 17.7725C50.9783 17.7703 50.9726 17.768 50.967 17.7657C50.9646 17.7647 50.9622 17.7637 50.9598 17.7628C50.2209 17.4603 49.695 16.9434 49.4241 16.252C49.3509 16.0653 49.2964 15.8659 49.2613 15.6546C49.2475 15.5715 49.2367 15.4867 49.2289 15.4C49.2287 15.3979 49.2285 15.3957 49.2283 15.3936C49.2282 15.3917 49.228 15.3899 49.2279 15.388L47.1759 15.568C47.1767 15.5782 47.1776 15.5884 47.1785 15.5986C47.1984 15.8181 47.2308 16.0315 47.2751 16.2384C47.3981 16.8124 47.6132 17.336 47.9089 17.8C48.0539 18.0276 48.2183 18.2409 48.4007 18.4387C48.7111 18.7753 49.0736 19.0672 49.4815 19.3091C49.5129 19.3277 49.5447 19.3461 49.5766 19.3642C49.8067 19.494 50.0507 19.6083 50.3072 19.7062C50.4092 19.7452 50.5132 19.7815 50.6192 19.8152C50.6296 19.8185 50.6401 19.8218 50.6506 19.8251C50.6801 19.8342 50.7097 19.8432 50.7395 19.852C51.3223 20.0239 51.9613 20.1169 52.6447 20.1218C52.6579 20.1219 52.6711 20.122 52.6844 20.122C52.6902 20.122 52.696 20.122 52.7019 20.122C52.9601 20.122 53.2106 20.1106 53.4528 20.0881C53.8035 20.0556 54.1366 20.0001 54.4504 19.9228C54.56 19.8959 54.6671 19.8662 54.7719 19.834C55.4618 19.6218 56.0459 19.2971 56.5019 18.8762C56.6798 18.7118 56.8383 18.5329 56.9759 18.3402C57.3815 17.7723 57.606 17.0854 57.6155 16.304C57.6157 16.2867 57.6159 16.2694 57.6159 16.252C57.6159 15.767 57.5222 15.3128 57.3459 14.8988C57.1559 14.4529 56.87 14.0538 56.5019 13.7131C56.3846 13.6046 56.259 13.502 56.1255 13.4057C56.0506 13.3517 55.9731 13.2996 55.8933 13.2496C55.8178 13.2024 55.7402 13.157 55.6606 13.1135C55.5731 13.0657 55.483 13.0202 55.3906 12.9771C55.1001 12.8416 54.7856 12.7293 54.4499 12.6427C54.373 12.6228 54.295 12.6043 54.2159 12.5872C54.1441 12.5717 54.0714 12.5573 53.9979 12.544L51.9819 12.184C51.978 12.1833 51.9742 12.1826 51.9703 12.1819C51.5295 12.1013 51.1727 12.0079 50.8876 11.8956C50.8705 11.8889 50.8536 11.8821 50.837 11.8752C50.8355 11.8746 50.834 11.874 50.8324 11.8733C50.8228 11.8693 50.8133 11.8653 50.8039 11.8613C50.134 11.5741 49.8939 11.1673 49.8939 10.546C49.8939 10.1661 50.051 9.82475 50.3503 9.55703C50.4554 9.46311 50.5779 9.37826 50.7173 9.304C51.0567 9.12314 51.4961 9.00506 52.0263 8.9717C52.0591 8.96963 52.0922 8.96789 52.1257 8.96648C52.1962 8.96351 52.2683 8.962 52.3419 8.962C52.404 8.962 52.4653 8.96321 52.5256 8.96561C52.5359 8.96602 52.5461 8.96646 52.5563 8.96694C52.5598 8.9671 52.5632 8.96727 52.5667 8.96744C52.8339 8.98058 53.0828 9.01737 53.3127 9.07639C53.5315 9.13255 53.7331 9.20884 53.9169 9.304C54.1155 9.4068 54.2934 9.53164 54.4499 9.67694C54.4571 9.68367 54.4643 9.69045 54.4715 9.69727C54.4814 9.70676 54.4913 9.71633 54.5011 9.72599C54.5025 9.72737 54.5039 9.72876 54.5053 9.73015C54.616 9.84008 54.7153 9.96088 54.8027 10.0919C54.896 10.2319 54.9759 10.3835 55.0421 10.546C55.1542 10.8216 55.2266 11.1287 55.2578 11.4636C55.2578 11.4635 55.2578 11.4638 55.2578 11.4636L57.3099 11.284C57.3095 11.2804 57.3092 11.2768 57.3088 11.2732C57.24 10.5643 57.0509 9.92794 56.757 9.3763C56.7441 9.35204 56.731 9.32793 56.7176 9.304C56.653 9.18799 56.5837 9.07586 56.5098 8.96772C56.167 8.46619 55.7258 8.05053 55.2013 7.7325C55.109 7.67651 55.014 7.62354 54.9166 7.57367C54.9098 7.57017 54.9029 7.56668 54.896 7.56321C54.8934 7.56185 54.8907 7.5605 54.888 7.55916C54.6464 7.43761 54.3897 7.3349 54.1191 7.252C53.8617 7.17319 53.5918 7.11228 53.3104 7.0701C53.1826 7.05095 53.0524 7.03566 52.92 7.02431C52.9145 7.02384 52.909 7.02337 52.9035 7.02291C52.7205 7.00771 52.5332 7 52.3419 7C51.7841 7 51.2637 7.06073 50.7892 7.17619C50.6943 7.19929 50.6012 7.22457 50.5101 7.252C50.4546 7.26868 50.3999 7.28616 50.3459 7.30441ZM57.3459 9.304H61.4499V19.834H63.5019V9.304H67.6059V7.252H57.3459V9.304Z" fill="#F5F1D4"/>
</svg>
