<svg width="83" height="26" viewBox="0 0 83 26" fill="none" xmlns="http://www.w3.org/2000/svg">
<path d="M6.90234 25C3.58864 25 0.902344 22.3137 0.902344 19V6.39995C0.902344 3.08624 3.58864 0.399949 6.90234 0.399949H12.6083C13.5856 0.399949 14.6169 0.510908 15.6416 0.780403C16.2972 0.534456 17.0072 0.399949 17.7487 0.399949H19.8008C20.9789 0.399949 22.0777 0.739519 23.0047 1.32613C23.9317 0.739519 25.0306 0.399949 26.2087 0.399949H28.2608C28.3983 0.399949 28.5349 0.404581 28.6701 0.413697C28.8049 0.40457 28.9405 0.399949 29.0768 0.399949H31.5608C32.7007 0.399949 33.7983 0.723719 34.7378 1.31008C35.6763 0.724355 36.7735 0.399949 37.9148 0.399949H40.3808C40.7526 0.399949 41.1195 0.434347 41.4774 0.50086C42.4804 0.255016 43.4951 0.147949 44.474 0.147949C45.7806 0.147949 47.1054 0.346239 48.372 0.781206C49.0282 0.53475 49.739 0.399949 50.4813 0.399949H52.5333C53.4259 0.399949 54.273 0.59485 55.0342 0.944414C56.4858 0.405368 58.0361 0.147949 59.6024 0.147949C61.5999 0.147949 63.6 0.584834 65.399 1.55229C67.2038 0.541557 69.2126 0.147949 71.0894 0.147949C73.6617 0.147949 76.3045 0.916451 78.4347 2.74636C80.5966 4.60337 81.7734 7.16555 82.0303 9.8631C82.1039 10.6357 82.0263 11.4071 81.81 12.1369C82.1642 13.1174 82.3634 14.2057 82.3634 15.4C82.3634 18.3973 81.0497 21.1143 78.7243 22.9393C76.54 24.6535 73.8878 25.27 71.4494 25.27C69.4306 25.27 67.3913 24.827 65.5674 23.8442C63.6861 24.8648 61.6038 25.2809 59.5715 25.2699C58.0131 25.2623 56.4675 25.0027 55.0185 24.4627C54.2613 24.8077 53.4198 25 52.5333 25H50.4813C47.5378 24.8209 40.2205 24.5701 34.5 25C28.7795 25.4299 24.453 24.5616 23.0048 24.0738C22.0777 24.6604 20.9789 25 19.8008 25H17.7487C16.0118 25 14.4472 24.2619 13.3515 23.0822C12.2559 24.2619 10.6913 25 8.95434 25H6.90234Z" fill="white"/>
<path d="M7.90195 19H9.95395V13.726H13.608C16.164 13.726 17.748 12.304 17.748 10C17.748 7.75 16.164 6.4 13.608 6.4H7.90195V19ZM9.95395 11.674V8.452H13.608C15.084 8.452 15.696 8.956 15.696 10C15.696 11.134 15.048 11.674 13.608 11.674H9.95395ZM18.7484 19H20.8004V13.114H27.2084V19H29.2604V6.4H27.2084V11.062H20.8004V6.4H18.7484V19ZM30.9404 19H33.4064L41.3804 6.4H38.9144L35.8544 11.242L32.5604 6.4H30.0764L34.6484 13.15L30.9404 19ZM45.8336 19.27C48.8036 19.27 50.7476 17.758 50.7476 15.4C50.7476 13.51 49.3256 12.088 47.1296 11.692L45.1136 11.332C43.5296 11.044 43.0256 10.594 43.0256 9.694C43.0256 8.794 43.9076 8.11 45.4736 8.11C47.2196 8.11 48.2456 9.064 48.3896 10.612L50.4416 10.432C50.1896 7.786 48.2636 6.148 45.4736 6.148C42.7916 6.148 40.9736 7.552 40.9736 9.694C40.9736 11.71 42.2516 12.916 44.7536 13.348L46.7696 13.708C48.0296 13.924 48.6956 14.554 48.6956 15.4C48.6956 16.534 47.6876 17.218 45.8336 17.218C43.7816 17.218 42.5036 16.21 42.3596 14.536L40.3076 14.716C40.5416 17.47 42.7376 19.27 45.8336 19.27ZM51.4809 19H53.5329V6.4H51.4809V19ZM60.602 19.27C63.806 19.288 65.894 17.542 66.38 14.428L64.364 14.104C64.022 16.21 62.798 17.236 60.602 17.218C57.92 17.2 56.408 15.598 56.408 12.7C56.408 9.82 57.92 8.2 60.602 8.2C62.654 8.2 63.932 9.262 64.274 11.26L66.29 10.9C65.786 7.93 63.662 6.148 60.602 6.148C56.786 6.148 54.356 8.704 54.356 12.7C54.356 16.714 56.768 19.252 60.602 19.27ZM72.449 19.27C75.419 19.27 77.363 17.758 77.363 15.4C77.363 13.51 75.941 12.088 73.745 11.692L71.729 11.332C70.145 11.044 69.641 10.594 69.641 9.694C69.641 8.794 70.523 8.11 72.089 8.11C73.835 8.11 74.861 9.064 75.005 10.612L77.057 10.432C76.805 7.786 74.879 6.148 72.089 6.148C69.407 6.148 67.589 7.552 67.589 9.694C67.589 11.71 68.867 12.916 71.369 13.348L73.385 13.708C74.645 13.924 75.311 14.554 75.311 15.4C75.311 16.534 74.303 17.218 72.449 17.218C70.397 17.218 69.119 16.21 68.975 14.536L66.923 14.716C67.157 17.47 69.353 19.27 72.449 19.27Z" fill="#0D0D1A"/>
</svg>
