<svg width="69" height="28" viewBox="0 0 69 28" fill="none" xmlns="http://www.w3.org/2000/svg">
<path fill-rule="evenodd" clip-rule="evenodd" d="M12.7445 7.02431C12.739 7.02384 12.7335 7.02337 12.728 7.02291C12.5451 7.00771 12.3578 7 12.1664 7C11.9168 7 11.6746 7.01216 11.4407 7.03596C10.1425 7.168 9.09858 7.65823 8.44051 8.41479C7.94334 8.98638 7.6664 9.70998 7.6664 10.546C7.6664 11.2583 7.82594 11.8695 8.14264 12.3811C8.14579 12.3862 8.14896 12.3913 8.15214 12.3964C8.33586 12.6891 8.57143 12.9491 8.85841 13.1765C8.96484 13.2608 9.07835 13.3407 9.1989 13.4161C9.7283 13.7472 10.3936 13.9923 11.1929 14.1527C11.273 14.1688 11.3546 14.1841 11.4374 14.1984C11.4383 14.1986 11.4392 14.1988 11.4401 14.1989C11.4422 14.1993 11.4443 14.1996 11.4464 14.2L13.4624 14.56C13.4714 14.5616 13.4805 14.5631 13.4894 14.5647C13.5136 14.569 13.5374 14.5734 13.5611 14.578C13.6479 14.5948 13.7317 14.6136 13.8126 14.6344C13.8482 14.6436 13.8832 14.6532 13.9177 14.6631C14.1519 14.7306 14.3592 14.8156 14.5387 14.9161C14.5659 14.9313 14.5924 14.9469 14.6183 14.9628C15.1258 15.2747 15.3884 15.7207 15.3884 16.252C15.3884 16.5607 15.3137 16.8361 15.1675 17.0734C14.8787 17.5423 14.3109 17.8626 13.4894 17.9977C13.2945 18.0298 13.0852 18.0514 12.862 18.0621C12.8536 18.0625 12.8452 18.0629 12.8368 18.0633C12.8336 18.0634 12.8303 18.0636 12.827 18.0637C12.8022 18.0648 12.7772 18.0657 12.7521 18.0665C12.6783 18.0688 12.6031 18.07 12.5264 18.07C12.1343 18.07 11.7705 18.0332 11.4374 17.962C11.2212 17.9157 11.0178 17.855 10.8282 17.7804C10.8216 17.7778 10.815 17.7751 10.8084 17.7725C10.8028 17.7703 10.7972 17.768 10.7915 17.7657C10.7892 17.7647 10.7868 17.7637 10.7844 17.7628C10.0454 17.4603 9.51949 16.9434 9.24861 16.252C9.14672 15.992 9.08092 15.7072 9.05345 15.3999C9.05326 15.3978 9.05308 15.3957 9.05289 15.3936C9.05273 15.3917 9.05256 15.3899 9.0524 15.388L7.0004 15.568C7.00127 15.5782 7.00216 15.5884 7.00308 15.5986C7.10509 16.726 7.53695 17.6922 8.22522 18.4387C8.53559 18.7753 8.89811 19.0672 9.30604 19.3091C9.33749 19.3278 9.3692 19.3461 9.40118 19.3642C9.72276 19.5456 10.0713 19.6968 10.4437 19.8152C10.4542 19.8185 10.4647 19.8218 10.4752 19.8251C10.7814 19.9205 11.1036 19.9939 11.44 20.0438C11.7699 20.0928 12.1136 20.1192 12.4692 20.1218C12.4824 20.1219 12.4957 20.122 12.5089 20.122C12.5147 20.122 12.5206 20.122 12.5264 20.122C13.2646 20.122 13.9394 20.0286 14.5368 19.852C15.4802 19.5731 16.2304 19.0866 16.7318 18.433C16.7552 18.4024 16.7781 18.3715 16.8005 18.3402C17.215 17.7597 17.4404 17.0549 17.4404 16.252C17.4404 15.6383 17.2905 15.0739 17.0128 14.578C16.7593 14.1254 16.3995 13.7298 15.9501 13.4057C15.8751 13.3517 15.7977 13.2996 15.7178 13.2496C15.6424 13.2024 15.5648 13.157 15.4851 13.1135C15.3976 13.0657 15.3076 13.0202 15.2151 12.9771C14.8581 12.8105 14.4649 12.6791 14.0404 12.5872C13.9686 12.5717 13.896 12.5573 13.8224 12.544L11.8064 12.184C11.8025 12.1833 11.7987 12.1826 11.7948 12.1819C11.6689 12.1589 11.5499 12.1348 11.4374 12.1096C11.1561 12.0464 10.9158 11.9759 10.7121 11.8956C10.695 11.8889 10.6782 11.8821 10.6616 11.8752C10.6504 11.8706 10.6393 11.866 10.6284 11.8613C9.95858 11.5741 9.7184 11.1673 9.7184 10.546C9.7184 9.79688 10.3295 9.1974 11.4374 9.01746C11.5684 8.9962 11.7062 8.9808 11.8508 8.97169C11.9527 8.96528 12.0579 8.962 12.1664 8.962C12.2286 8.962 12.2898 8.96321 12.3502 8.96561C12.3604 8.96602 12.3707 8.96646 12.3809 8.96694C12.3843 8.9671 12.3878 8.96727 12.3912 8.96744C12.8016 8.98761 13.1688 9.0636 13.4903 9.19017C13.5774 9.22444 13.6611 9.26242 13.7415 9.304C13.9493 9.41157 14.1344 9.54325 14.296 9.69727C14.306 9.70676 14.3158 9.71633 14.3256 9.72599C14.327 9.72737 14.3284 9.72876 14.3298 9.73015C14.4406 9.84008 14.5398 9.96088 14.6272 10.0919C14.7036 10.2065 14.771 10.3288 14.8293 10.4586C14.8421 10.4874 14.8546 10.5165 14.8666 10.546C14.9787 10.8217 15.0512 11.129 15.0824 11.464L17.1344 11.284C17.1341 11.2804 17.1337 11.2768 17.1334 11.2732C17.0646 10.5643 16.8754 9.92794 16.5816 9.3763C16.5686 9.35204 16.5555 9.32794 16.5422 9.304C16.4744 9.18237 16.4015 9.06499 16.3236 8.95202C15.9823 8.4575 15.5449 8.0472 15.0259 7.7325C14.9335 7.67651 14.8386 7.62354 14.7411 7.57367C14.7343 7.57017 14.7274 7.56668 14.7206 7.56321C14.7179 7.56185 14.7152 7.5605 14.7126 7.55916C14.471 7.43761 14.2143 7.3349 13.9436 7.252C13.8985 7.2382 13.8531 7.22496 13.8073 7.21226C13.4726 7.11951 13.1176 7.05628 12.7445 7.02431ZM18.4374 19.852H20.4894V14.578H24.1434C24.2017 14.578 24.2594 14.5773 24.3167 14.5758C24.4453 14.5725 24.5714 14.5655 24.6948 14.5548C24.9544 14.5325 25.2022 14.4941 25.4374 14.4402C26.0202 14.3069 26.5258 14.0792 26.9424 13.7674C26.9536 13.759 26.9648 13.7505 26.9758 13.742C26.9875 13.7331 26.9991 13.724 27.0106 13.715C27.3169 13.4732 27.5723 13.1841 27.7721 12.852C27.9581 12.5427 28.0958 12.1962 28.1812 11.8159C28.2186 11.6492 28.2459 11.4761 28.2629 11.2967C28.2725 11.1946 28.2788 11.0905 28.2817 10.9845C28.2828 10.9407 28.2834 10.8965 28.2834 10.852C28.2834 10.3658 28.2095 9.92171 28.0678 9.52412C27.9689 9.24679 27.837 8.99211 27.6743 8.76163C27.2831 8.20754 26.7135 7.79328 25.9944 7.54024C25.8177 7.47803 25.6318 7.42556 25.4374 7.38316C25.0407 7.29662 24.6081 7.252 24.1434 7.252H18.4374V19.852ZM20.4894 12.526H24.1434C24.1819 12.526 24.2199 12.5256 24.2573 12.5248C24.3517 12.5229 24.4425 12.5185 24.5298 12.5115C24.8927 12.4828 25.1942 12.4111 25.4374 12.2951C25.9038 12.0728 26.1561 11.688 26.2169 11.1322C26.2266 11.0432 26.2314 10.9498 26.2314 10.852C26.2314 10.4799 26.1537 10.1764 25.9868 9.9399C25.8583 9.75774 25.6769 9.6153 25.4374 9.51183C25.4009 9.49605 25.363 9.48117 25.3238 9.4672C25.017 9.35798 24.6265 9.304 24.1434 9.304H20.4894V12.526ZM16.1894 0.620793C14.8707 0.193569 13.5047 0 12.1664 0C9.67215 0 6.90444 0.648991 4.59353 2.45953C2.13462 4.38603 0.666399 7.29278 0.666399 10.546C0.666399 11.1309 0.711134 11.7208 0.804968 12.3079C0.201567 13.4519 -0.092081 14.7764 0.0255309 16.1606C0.296311 19.3475 1.76803 22.2471 4.24241 24.2831C6.65925 26.2718 9.63316 27.122 12.5264 27.122C13.8056 27.122 15.1556 26.9628 16.4838 26.5758C17.1039 26.7556 17.7594 26.852 18.4374 26.852H20.4894C21.6537 26.852 22.7516 26.5678 23.7175 26.0649C24.7001 26.5749 25.8036 26.852 26.9424 26.852H29.1204C30.5013 26.852 31.812 26.4469 32.9184 25.7321C34.0257 26.4474 35.3368 26.852 36.7164 26.852H38.8764C39.5555 26.852 40.2219 26.7535 40.8575 26.5659C42.1379 26.9358 43.468 27.1151 44.7992 27.1219M44.8024 27.1219C46.2779 27.1299 47.7925 26.9267 49.2555 26.4464C49.9911 26.709 50.7836 26.852 51.6095 26.852H61.0055C64.8715 26.852 68.0055 23.718 68.0055 19.852V17.8C68.0055 16.8067 67.7986 15.8618 67.4256 15.0059C67.4519 14.7588 67.4655 14.508 67.4655 14.254V12.202C67.4655 12.0277 67.4591 11.8548 67.4466 11.6837C67.7151 10.9408 67.8615 10.1395 67.8615 9.304V7.252C67.8615 3.38601 64.7275 0.252 60.8615 0.252H51.6095C50.7524 0.252 49.9313 0.406024 49.1724 0.687902C47.7653 0.217313 46.2964 0 44.8385 0C42.5823 0 40.3361 0.500546 38.33 1.57663C37.1634 0.734404 35.7389 0.252 34.2324 0.252H31.3524C30.2806 0.252 29.251 0.496064 28.3264 0.939646C26.9136 0.443117 25.4719 0.252 24.1434 0.252H18.4374C17.6511 0.252 16.895 0.381669 16.1894 0.620793M30.7944 15.028H34.9164L36.7164 19.852H38.8764L34.2324 7.252H31.3524L26.9424 19.852H29.1204L30.7944 15.028ZM31.5144 12.976H34.1604L32.7924 9.304L31.5144 12.976ZM39.5354 9.76812C39.2766 10.2032 39.0678 10.6837 38.9131 11.2054C38.8927 11.2742 38.8733 11.3437 38.8548 11.4139C38.7359 11.865 38.6563 12.3453 38.6183 12.852C38.6012 13.08 38.5925 13.3135 38.5925 13.552C38.5925 13.5868 38.5927 13.6215 38.5931 13.6561C38.594 13.7434 38.596 13.8299 38.5992 13.9157C38.6242 14.5838 38.7182 15.2082 38.8764 15.7837C39.041 16.3823 39.2751 16.928 39.573 17.4149C39.8126 17.8065 40.0936 18.1601 40.413 18.4727C40.623 18.6782 40.8496 18.8661 41.0921 19.0354C42.0404 19.6974 43.2307 20.0754 44.6144 20.118C44.683 20.1202 44.7521 20.1214 44.8217 20.1219C44.8227 20.1219 44.8237 20.1219 44.8247 20.1219C44.8293 20.122 44.8339 20.122 44.8385 20.122C45.1977 20.124 45.5429 20.1039 45.8733 20.0621C46.23 20.017 46.5696 19.9468 46.8912 19.852C46.9144 19.8452 46.9376 19.8382 46.9607 19.8311C47.2852 19.7311 47.5911 19.6058 47.8773 19.4559C48.0744 19.3527 48.2622 19.2379 48.4403 19.1117C48.8717 18.8061 49.2469 18.4338 49.5616 17.998C49.5809 17.9713 49.5999 17.9444 49.6187 17.9173C49.6455 17.8787 49.6718 17.8396 49.6976 17.8C50.1408 17.1211 50.4478 16.302 50.6046 15.354C50.6085 15.3305 50.6123 15.3069 50.616 15.2833C50.6161 15.2822 50.6163 15.2811 50.6165 15.28L49.0307 15.0251M48.599 14.9651C48.5037 15.5473 48.3406 16.0467 48.1081 16.4641ZM51.6095 19.852H61.0055V17.8H53.6615V14.254H60.4655V12.202H53.6615V9.304H60.8615V7.252H51.6095V19.852ZM44.6138 7.00299C44.6882 7.001 44.7631 7 44.8385 7C45.5111 7 46.1385 7.0861 46.7135 7.252C46.7917 7.27459 46.869 7.29866 46.9454 7.32419C47.2139 7.41402 47.4701 7.52196 47.7132 7.64732C47.8983 7.74275 48.0759 7.84827 48.2454 7.96358C48.6097 8.21126 48.9374 8.5041 49.2251 8.83908C49.3295 8.96067 49.4286 9.08781 49.5223 9.22036C49.5418 9.24801 49.5612 9.27589 49.5802 9.304C50.023 9.9569 50.3371 10.7359 50.5038 11.6246C50.5117 11.6668 50.5193 11.7093 50.5265 11.752L48.5105 12.112C48.5095 12.1062 48.5085 12.1004 48.5075 12.0946C48.5039 12.0737 48.5001 12.0529 48.4962 12.0321C48.3745 11.3776 48.1499 10.8263 47.8284 10.3828C47.5244 9.96329 47.1338 9.64026 46.6615 9.41756C46.1484 9.17566 45.539 9.05214 44.8397 9.052C44.8393 9.052 44.8389 9.052 44.8385 9.052C44.7612 9.052 44.6848 9.05335 44.6095 9.05603C43.81 9.08451 43.1208 9.26352 42.5518 9.58279C41.8332 9.98597 41.3062 10.6128 40.9905 11.4426C40.9824 11.4639 40.9745 11.4852 40.9667 11.5068C40.8178 11.917 40.7194 12.3754 40.6739 12.8797C40.6544 13.0955 40.6445 13.3196 40.6445 13.552C40.6445 14.1292 40.7045 14.6551 40.8218 15.1272C41.1128 16.2986 41.7564 17.1395 42.7114 17.6151C43.07 17.7936 43.4724 17.9206 43.9166 17.9943C44.1373 18.031 44.3684 18.0544 44.6095 18.0645C44.684 18.0676 44.7595 18.0694 44.8359 18.07C44.8368 18.07 44.8376 18.07 44.8385 18.07C44.8417 18.07 44.8449 18.0701 44.8481 18.0701C44.8488 18.0701 44.8494 18.0701 44.85 18.0701C45.1268 18.0719 45.388 18.0571 45.634 18.0255C46.0125 17.977 46.3548 17.889 46.6615 17.7611C47.2923 17.498 47.7726 17.0664 48.1081 16.4641M44.6095 13.2642V13.9191C44.4845 13.8657 44.3242 13.7774 44.15 13.6317C44.1441 13.6267 44.1383 13.6218 44.1325 13.6168C44.1549 13.5951 44.1782 13.5735 44.2024 13.552C44.2186 13.5376 44.2352 13.5233 44.2522 13.509C44.3823 13.4 44.504 13.3212 44.6095 13.2642ZM40.1295 8.9473C39.9093 9.19916 39.7108 9.47321 39.5354 9.76812ZM40.1295 8.9473C40.6026 8.40634 41.176 7.96775 41.8375 7.64474C42.6405 7.25262 43.5733 7.03083 44.6138 7.00299" fill="#BEFFEF"/>
<rect x="5.07812" y="4.85205" width="57" height="19" fill="#BEFFEF"/>
<path d="M13.526 20.122C16.496 20.122 18.44 18.61 18.44 16.252C18.44 14.362 17.018 12.94 14.822 12.544L12.806 12.184C11.222 11.896 10.718 11.446 10.718 10.546C10.718 9.646 11.6 8.962 13.166 8.962C14.912 8.962 15.938 9.916 16.082 11.464L18.134 11.284C17.882 8.638 15.956 7 13.166 7C10.484 7 8.666 8.404 8.666 10.546C8.666 12.562 9.944 13.768 12.446 14.2L14.462 14.56C15.722 14.776 16.388 15.406 16.388 16.252C16.388 17.386 15.38 18.07 13.526 18.07C11.474 18.07 10.196 17.062 10.052 15.388L8 15.568C8.234 18.322 10.43 20.122 13.526 20.122Z" fill="#0D0D1A"/>
<path d="M19.437 19.852H21.489V14.578H25.143C27.699 14.578 29.283 13.156 29.283 10.852C29.283 8.602 27.699 7.252 25.143 7.252H19.437V19.852ZM21.489 12.526V9.304H25.143C26.619 9.304 27.231 9.808 27.231 10.852C27.231 11.986 26.583 12.526 25.143 12.526H21.489Z" fill="#0D0D1A"/>
<path d="M27.942 19.852H30.12L31.794 15.028H35.916L37.716 19.852H39.876L35.232 7.252H32.352L27.942 19.852ZM32.514 12.976L33.792 9.304L35.16 12.976H32.514Z" fill="#0D0D1A"/>
<path d="M45.8381 20.122C49.0421 20.14 51.1301 18.394 51.6161 15.28L49.6001 14.956C49.2581 17.062 48.0341 18.088 45.8381 18.07C43.1561 18.052 41.6441 16.45 41.6441 13.552C41.6441 10.672 43.1561 9.052 45.8381 9.052C47.8901 9.052 49.1681 10.114 49.5101 12.112L51.5261 11.752C51.0221 8.782 48.8981 7 45.8381 7C42.0221 7 39.5921 9.556 39.5921 13.552C39.5921 17.566 42.0041 20.104 45.8381 20.122Z" fill="#0D0D1A"/>
<path d="M52.6091 19.852H62.0051V17.8H54.6611V14.254H61.4651V12.202H54.6611V9.304H61.8611V7.252H52.6091V19.852Z" fill="#0D0D1A"/>
</svg>
