<svg width="58" height="27" viewBox="0 0 58 27" fill="none" xmlns="http://www.w3.org/2000/svg">
<path d="M5.28711 3.98834H55.2871V22.9883H5.28711V3.98834Z" fill="#EFA29E"/>
<path d="M10.604 19.334H12.656V8.804H16.76V6.752H6.5V8.804H10.604V19.334Z" fill="#0D0D1A"/>
<path d="M17.383 19.352H26.779V17.3H19.435V13.754H26.239V11.702H19.435V8.804H26.635V6.752H17.383V19.352Z" fill="#0D0D1A"/>
<path d="M33.922 19.622C37.126 19.64 39.214 17.894 39.7 14.78L37.684 14.456C37.342 16.562 36.118 17.588 33.922 17.57C31.24 17.552 29.728 15.95 29.728 13.052C29.728 10.172 31.24 8.552 33.922 8.552C35.974 8.552 37.252 9.614 37.594 11.612L39.61 11.252C39.106 8.282 36.982 6.5 33.922 6.5C30.106 6.5 27.676 9.056 27.676 13.052C27.676 17.066 30.088 19.604 33.922 19.622Z" fill="#0D0D1A"/>
<path d="M40.693 19.352H42.745V13.466H49.153V19.352H51.205V6.752H49.153V11.414H42.745V6.752H40.693V19.352Z" fill="#0D0D1A"/>
<path fill-rule="evenodd" clip-rule="evenodd" d="M10.604 25.834C7.01415 25.834 4.104 22.9239 4.104 19.334V14.8482C1.69993 13.8943 0 11.5477 0 8.804V6.752C0 3.16215 2.91015 0.252 6.5 0.252H16.76C16.8644 0.252 16.9683 0.254462 17.0715 0.259332C17.1747 0.254462 17.2785 0.252 17.383 0.252H26.635C27.5664 0.252 28.4521 0.447923 29.2531 0.800806C30.7428 0.258216 32.3272 0 33.922 0C35.3893 0 36.8633 0.227677 38.2665 0.720044C39.0162 0.418158 39.8352 0.252 40.693 0.252H42.745C43.91 0.252 45.0034 0.558486 45.949 1.09523C46.8946 0.558486 47.988 0.252 49.153 0.252H51.205C54.7948 0.252 57.705 3.16215 57.705 6.752V19.352C57.705 22.9419 54.7948 25.852 51.205 25.852H49.153C47.988 25.852 46.8946 25.5455 45.949 25.0088C45.0034 25.5455 43.91 25.852 42.745 25.852H40.693C39.866 25.852 39.0751 25.6976 38.3475 25.416C36.891 25.9174 35.373 26.13 33.8885 26.1219M42.745 19.352V13.466H49.153V19.352H51.205V6.752H49.153V11.414H42.745V6.752H40.693V19.352H42.745ZM39.6881 14.8543C39.692 14.8307 39.6958 14.8071 39.6995 14.7833L39.7 14.78L38.1142 14.5251M37.6825 14.4651C37.6365 14.746 37.5747 15.0076 37.497 15.25ZM37.5939 11.6116L39.61 11.252C39.6028 11.2092 39.5952 11.1667 39.5872 11.1244C39.4134 10.1975 39.0791 9.38997 38.6058 8.72036C38.5665 8.66475 38.5262 8.6101 38.485 8.5564C38.3207 8.34232 38.1414 8.14353 37.9478 7.96072C37.6069 7.63882 37.2218 7.36646 36.7968 7.14732C36.6197 7.05601 36.4356 6.97395 36.245 6.9014C36.0994 6.84602 35.9501 6.79618 35.797 6.752C35.3013 6.60897 34.7666 6.52525 34.1976 6.50489C34.1066 6.50164 34.0147 6.5 33.922 6.5C33.6514 6.5 33.3878 6.51285 33.1315 6.53816C32.7237 6.57843 32.3344 6.65025 31.9652 6.752C31.5846 6.85691 31.2254 6.99363 30.8891 7.16043C30.1018 7.55097 29.4406 8.10635 28.9266 8.804C28.4849 9.40356 28.1519 10.1082 27.941 10.9036C27.8729 11.1604 27.8176 11.4267 27.7754 11.702C27.7097 12.1308 27.676 12.5814 27.676 13.052C27.676 13.2913 27.6846 13.5254 27.7015 13.754C27.7386 14.2546 27.8158 14.729 27.9309 15.1748C28.1391 15.9812 28.4713 16.6941 28.9144 17.3C29.3301 17.8684 29.8435 18.3425 30.4437 18.711C30.889 18.9843 31.382 19.1995 31.9185 19.352C32.3439 19.4729 32.7967 19.5544 33.2745 19.5941C33.4802 19.6111 33.6904 19.6205 33.9052 19.6219L33.9082 19.6219C33.9128 19.622 33.9174 19.622 33.922 19.622C34.0151 19.6225 34.1072 19.6216 34.1984 19.6191C34.8389 19.6019 35.4324 19.5118 35.9747 19.352C36.0663 19.325 36.1564 19.2961 36.245 19.2651C36.4956 19.1777 36.7343 19.0745 36.9608 18.9559C37.4028 18.7245 37.798 18.4346 38.1431 18.0888C38.3244 17.9071 38.4919 17.7101 38.6451 17.498C38.8056 17.2758 38.9504 17.037 39.0789 16.7823C39.3642 16.2169 39.5692 15.5726 39.6881 14.8543M37.497 15.25C37.2471 16.0298 36.8321 16.6111 36.245 16.9969ZM37.1194 10.2077C37.315 10.5568 37.4614 10.9595 37.5564 11.414C37.5646 11.4531 37.5724 11.4926 37.5798 11.5325C37.5836 11.5531 37.5874 11.5738 37.591 11.5946C37.592 11.6003 37.593 11.6059 37.5939 11.6116M37.1194 10.2077C36.8928 9.80344 36.6003 9.47091 36.245 9.21266C35.8444 8.9215 35.364 8.72476 34.8085 8.62606C34.6126 8.59125 34.4074 8.56863 34.193 8.55838C34.1042 8.55413 34.0139 8.552 33.922 8.552C33.6473 8.552 33.3848 8.569 33.135 8.60262C32.8247 8.64436 32.5339 8.71174 32.2634 8.804C32.2046 8.82402 32.1469 8.84522 32.0901 8.86759C30.9423 9.31934 30.1861 10.2465 29.8808 11.5865C29.8721 11.6246 29.8638 11.6632 29.8558 11.702C29.7712 12.1149 29.728 12.5655 29.728 13.052C29.728 13.2952 29.7387 13.5292 29.7598 13.754C29.7824 13.9957 29.8172 14.2266 29.8638 14.4466C30.1324 15.7153 30.7945 16.6194 31.8016 17.1184C31.9392 17.1865 32.0831 17.2471 32.2334 17.3C32.5537 17.4128 32.9026 17.4908 33.279 17.533C33.4851 17.5561 33.6996 17.5685 33.922 17.57C33.9252 17.57 33.9284 17.5701 33.9316 17.5701L33.9335 17.5701C34.0216 17.5707 34.1081 17.5696 34.193 17.5668C34.4248 17.5591 34.645 17.5389 34.8537 17.5061C35.394 17.4212 35.857 17.2517 36.245 16.9969M26.779 19.352V17.3H19.435V13.754H26.239V11.702H19.435V8.804H26.635V6.752H17.383V19.352H26.779ZM16.76 8.804V6.752H6.5V8.804H10.604V19.334H12.656V8.804H16.76Z" fill="#EFA29E"/>
</svg>
