<svg width="113" height="32" viewBox="0 0 113 32" fill="none" xmlns="http://www.w3.org/2000/svg">
<path d="M1 9.80388C3.33333 15.6372 11.1 24.4039 23.5 12.8039C39 -1.69612 15.1509 -2.19612 15.5 7.80388C15.8491 17.8039 29.9891 30.304 41.5 30.304C61.5 30.304 75.5 9.80396 67.5 3.80396C59.5 -2.19604 54.6997 7.14886 58.5 12.8039C63 19.5 71.5 25.304 84 20.804C94 17.204 105.833 7.97062 110.5 3.80396M110.5 3.80396C108.5 4.63729 103.5 6.30396 99.5 6.30396M110.5 3.80396C110 5.63729 109.3 9.80396 110.5 11.804" stroke="#EFA29E" stroke-width="2"/>
</svg>
