<svg width="475" height="79" viewBox="0 0 475 79" fill="none" xmlns="http://www.w3.org/2000/svg">
<path d="M97.3803 26.8976C105.058 25.4463 112.755 24.1675 120.468 23.0022C165.558 18.8579 210.731 14.1159 256.046 13.6338C287.295 13.3014 318.593 14.6164 349.683 17.7918C369.23 19.7882 389.02 22.3832 407.894 28.1034C417.344 30.9677 447.271 41.0708 428.6 53.9656C420.936 59.2586 410.544 61.0617 401.594 62.6144L401.116 62.6973C384.295 65.618 367.213 67.1072 350.182 68.1026C303.445 70.8339 256.33 69.5328 209.561 68.6015C166.484 67.7438 123.497 65.4431 80.4992 62.7804C65.8973 61.8762 51.2511 61.0557 36.7163 59.3294C35.1048 59.138 23.1892 58.393 20.9578 55.3378C20.0142 54.0458 20.1774 51.6186 21.3736 50.5561C29.9456 42.9423 53.8924 36.507 61.6222 34.5066C73.4198 31.4535 85.4062 29.161 97.3803 26.8976Z" fill="#F5F1D4"/>
<path d="M158.918 17.8749C138.327 20.402 117.784 23.0409 97.3803 26.8976C85.4062 29.161 73.4198 31.4535 61.6223 34.5066C53.8924 36.507 29.9456 42.9423 21.3736 50.5561C20.1774 51.6186 20.0142 54.0458 20.9578 55.3378C23.1892 58.393 35.1048 59.138 36.7163 59.3294C51.2511 61.0557 65.8973 61.8762 80.4992 62.7804C123.497 65.4431 166.484 67.7438 209.561 68.6015C256.33 69.5328 303.445 70.8339 350.182 68.1026C367.213 67.1072 384.295 65.618 401.116 62.6973C410.172 61.1249 420.8 59.3531 428.6 53.9656C447.271 41.0708 417.344 30.9677 407.894 28.1034C389.02 22.3832 369.23 19.7882 349.683 17.7918C318.593 14.6164 287.295 13.3014 256.046 13.6338C210.323 14.1202 164.745 18.9436 119.251 23.1139" stroke="#A54A3E" stroke-width="2" stroke-linecap="round"/>
<path d="M130.477 21.6171C127.899 21.3307 127.974 20.4112 124.157 20.3697C86.3507 19.9588 45.9919 29.8187 11.5601 45.0677C7.50841 46.8622 -1.96489 52.0722 1.91377 54.2152C4.53796 55.6651 7.76715 55.5355 10.7286 56.0031C20.0362 57.4727 33.2911 58.6492 42.2456 59.4957C110.514 65.9497 178.982 70.0569 247.48 73.0921C309.102 75.8226 371.815 79.7572 433.423 74.6721C439.991 74.1299 461.71 71.9309 469.347 67.5205C484.877 58.5515 456.815 44.7394 453.713 43.1551C437.003 34.6209 419.48 28.9549 401.49 23.7792C368.585 14.3129 334.681 8.20689 300.619 4.81909C257.131 0.493835 213.392 0.225172 169.769 2.11645C132.216 3.74456 95.2424 8.34123 57.8793 11.8876" stroke="#A54A3E" stroke-width="2" stroke-linecap="round"/>
<path d="M189.449 52H192.716L195.227 44.764H201.41L204.11 52H207.35L200.384 33.1H196.064L189.449 52ZM196.307 41.686L198.224 36.178L200.276 41.686H196.307ZM214.946 52.405C219.401 52.405 222.317 50.137 222.317 46.6C222.317 43.765 220.184 41.632 216.89 41.038L213.866 40.498C211.49 40.066 210.734 39.391 210.734 38.041C210.734 36.691 212.057 35.665 214.406 35.665C217.025 35.665 218.564 37.096 218.78 39.418L221.858 39.148C221.48 35.179 218.591 32.722 214.406 32.722C210.383 32.722 207.656 34.828 207.656 38.041C207.656 41.065 209.573 42.874 213.326 43.522L216.35 44.062C218.24 44.386 219.239 45.331 219.239 46.6C219.239 48.301 217.727 49.327 214.946 49.327C211.868 49.327 209.951 47.815 209.735 45.304L206.657 45.574C207.008 49.705 210.302 52.405 214.946 52.405ZM223.812 52H226.89V49.57L230.805 44.224L236.502 52H240.336L232.722 41.605L238.905 33.1H235.098L226.89 44.332V33.1H223.812V52ZM248.969 52H252.047V37.501L256.907 52H260.714L265.871 37.42V52H268.949V33.1H264.062L258.851 47.437L253.937 33.1H248.969V52ZM271.118 52H285.212V48.922H274.196V43.603H284.402V40.525H274.196V36.178H284.996V33.1H271.118V52Z" fill="#0D0D1A"/>
</svg>
