<svg width="78" height="77" viewBox="0 0 78 77" fill="none" xmlns="http://www.w3.org/2000/svg">
<path d="M10.3206 30.1094C10.3206 30.1094 10.9436 28.2159 11.8186 26.6564C18.6154 18.949 28.7586 14.2709 39.3212 14.1097C50.8515 13.9336 68.7695 20.9991 69.8212 35.1097C71.384 56.0782 40.1864 64.6986 25.821 60.1096C13.8288 56.2788 4.41259 41.4609 10.3206 30.1094Z" fill="#F5F1D4"/>
<path d="M13.6736 24.6654C11.9717 25.0909 10.3206 30.1094 10.3206 30.1094C4.41259 41.4609 13.8288 56.2788 25.821 60.1096C40.1864 64.6986 71.384 56.0782 69.8212 35.1097C68.7695 20.9991 50.8515 13.9336 39.3212 14.1097C28.7122 14.2716 18.5263 18.9902 11.7292 26.7583" stroke="#A54A3E" stroke-width="2" stroke-linecap="round"/>
<path d="M11.3202 27.6094C0.820072 39.1094 -2.75654 58.9602 5.73509 69.134C16.1979 81.6694 38.708 71.7018 48.9139 64.4809C59.293 57.1376 63.6661 53.4705 70.3204 42.6094C76.9747 31.7482 78.8737 19.2718 74.8212 9.40166C68.0008 -7.20973 41.2806 5.2242 31.1158 9.40191" stroke="#A54A3E" stroke-width="2" stroke-linecap="round"/>
<line x1="24.8196" y1="34.1095" x2="49.8196" y2="34.1095" stroke="#F26553" stroke-width="2"/>
<line x1="24.8196" y1="42.1095" x2="49.8196" y2="42.1095" stroke="#F26553" stroke-width="2"/>
</svg>
