<svg width="78" height="77" viewBox="0 0 78 77" fill="none" xmlns="http://www.w3.org/2000/svg">
<path d="M67.6201 30.1094C67.6201 30.1094 66.9971 28.2159 66.122 26.6564C59.3252 18.949 49.1821 14.2709 38.6195 14.1097C27.0892 13.9336 9.17122 20.9991 8.11949 35.1097C6.55663 56.0782 37.7543 64.6986 52.1197 60.1096C64.1119 56.2788 73.5281 41.4609 67.6201 30.1094Z" fill="#F5F1D4"/>
<path d="M64.267 24.6654C65.9689 25.0909 67.6201 30.1094 67.6201 30.1094C73.5281 41.4609 64.1119 56.2788 52.1197 60.1096C37.7543 64.6986 6.55663 56.0782 8.11949 35.1097C9.17122 20.9991 27.0892 13.9336 38.6195 14.1097C49.2285 14.2716 59.4144 18.9902 66.2115 26.7583" stroke="#A54A3E" stroke-width="2" stroke-linecap="round"/>
<path d="M66.6205 27.6094C77.1206 39.1094 80.6972 58.9602 72.2056 69.134C61.7427 81.6694 39.2327 71.7018 29.0268 64.4809C18.6477 57.1376 14.2745 53.4705 7.62025 42.6094C0.965961 31.7482 -0.933049 19.2718 3.11949 9.40166C9.93986 -7.20973 36.6601 5.2242 46.8249 9.40191" stroke="#A54A3E" stroke-width="2" stroke-linecap="round"/>
</svg>
